<svg width="269" height="269" viewBox="0 0 269 269" fill="none" xmlns="http://www.w3.org/2000/svg">
<path d="M32.025 184.842H16.1326V191.553H32.025V184.842Z" fill="#678366"/>
<path d="M23.1606 193.304H7.26819V200.015H23.1606V193.304Z" fill="#678366"/>
<path d="M134.966 56.057H119.073V62.7679H134.966V56.057Z" fill="#678366"/>
<path d="M126.095 64.519H110.203V71.23H126.095V64.519Z" fill="#678366"/>
<path d="M117.267 56.057H101.375V62.7679H117.267V56.057Z" fill="#678366"/>
<path d="M254.741 38.3351H158.618V42.4612H254.741V38.3351Z" fill="#678366"/>
<path d="M172.597 58.6898H168.851L167.351 42.4552H172.597V58.6898Z" fill="#678366"/>
<path d="M240.77 58.6898H244.515L246.015 42.4552H240.77V58.6898Z" fill="#678366"/>
<path d="M167.351 42.4612H172.597V48.0506H167.867L167.351 42.4612Z" fill="#939F96"/>
<path d="M246.015 42.4612L245.499 48.0506H240.77V42.4612H246.015Z" fill="#939F96"/>
<path d="M193.428 13.5905C189.161 19.3658 184.714 26.0648 183.634 33.3034C183.634 33.4114 183.796 33.4474 183.82 33.3394C184.313 31.365 184.942 29.4272 185.704 27.5401C188.513 26.7724 191.262 26.1367 192.738 23.342C194.214 20.5473 194.046 16.745 193.758 13.6444C193.716 13.4885 193.512 13.4825 193.428 13.5905Z" fill="#678366"/>
<path d="M185.746 27.486C187.628 23.088 190.159 18.9964 193.254 15.3475C193.254 15.3475 193.302 15.3475 193.254 15.3835C191.302 17.9022 189.588 20.5965 188.135 23.4318C189.545 21.9985 191.093 20.7151 192.432 19.1918C192.432 19.1918 192.498 19.1918 192.474 19.2338C191.147 20.829 189.695 22.5622 187.967 23.7377C187.498 24.5933 187.028 25.4509 186.556 26.3105C186.676 26.2445 186.796 26.1906 186.916 26.1306C186.916 26.1306 186.952 26.1306 186.916 26.1306C186.784 26.1966 186.652 26.2685 186.514 26.3285C186.292 26.7303 186.07 27.1381 185.836 27.528C185.836 27.6599 185.71 27.5759 185.746 27.486Z" fill="#111111"/>
<path d="M187.175 25.9866C188.321 25.3465 189.415 24.6166 190.445 23.8036C190.475 23.8036 190.517 23.8036 190.487 23.8456C189.487 24.7079 188.391 25.4543 187.223 26.0705C187.169 26.0945 187.115 26.0166 187.175 25.9866Z" fill="#111111"/>
<path d="M183.165 33.2375C183.165 33.3214 183.321 33.3214 183.321 33.2375C183.321 30.8386 183.321 28.4397 183.357 26.0408C183.958 24.8413 185.284 24.1277 186.196 23.1381C186.851 22.4177 187.421 21.6249 187.895 20.7752C188.996 18.7336 189.668 16.4887 189.869 14.1782C190.121 11.6294 189.155 3.21523 188.069 3.5091C187.511 3.65903 185.71 7.82712 185.23 9.20049C184.444 11.482 183.87 13.8308 183.514 16.2173C182.75 21.8589 182.633 27.5693 183.165 33.2375Z" fill="#678366"/>
<path d="M183.147 22.9521C183.375 19.9181 183.859 16.9087 184.594 13.9562C185.278 10.8017 186.082 7.83305 187.703 5.02033C187.709 5.0092 187.72 5.00105 187.732 4.99768C187.744 4.9943 187.758 4.99598 187.769 5.00234C187.78 5.0087 187.788 5.01923 187.791 5.0316C187.795 5.04397 187.793 5.05718 187.787 5.06831C186.715 7.25624 185.885 9.55489 185.314 11.9232C185.428 11.7552 185.56 11.5933 185.668 11.4314C185.716 11.3714 185.818 11.4314 185.776 11.4974C185.628 11.7498 185.457 11.9886 185.266 12.211C184.708 14.46 184.306 16.763 183.964 19.0659L184.036 18.9759C184.036 18.9759 184.084 18.9759 184.072 18.9759L183.94 19.2038C183.766 20.3733 183.604 21.5368 183.442 22.6882C185.573 20.9774 187.242 18.7612 188.297 16.2412C187.41 18.9283 185.693 21.2652 183.394 22.9161C183.346 23.228 183.304 23.5159 183.261 23.8517C183.261 23.9117 183.147 23.8997 183.147 23.8517C183.147 23.5758 183.147 23.3 183.147 23.0301C183.123 23.0241 183.111 22.9821 183.147 22.9521Z" fill="#111111"/>
<path d="M184.114 18.58C185.736 16.2793 187.154 13.8411 188.351 11.2934C188.351 11.2634 188.411 11.2934 188.405 11.2934C187.454 13.9677 186.031 16.4499 184.204 18.622C184.168 18.682 184.114 18.628 184.114 18.58Z" fill="#111111"/>
<path d="M186.238 10.7057C186.898 9.54227 187.589 8.40879 188.213 7.22134C188.213 7.19135 188.273 7.22134 188.261 7.22134C187.752 8.45998 187.108 9.63861 186.34 10.7357C186.333 10.7436 186.323 10.7492 186.312 10.752C186.302 10.7548 186.291 10.7547 186.28 10.7516C186.27 10.7485 186.26 10.7426 186.253 10.7345C186.245 10.7264 186.24 10.7165 186.238 10.7057Z" fill="#111111"/>
<path d="M181.995 27.1261C181.965 28.7057 181.78 30.2785 181.443 31.822L181.515 32.3377C182.001 30.6318 182.283 28.8743 182.355 27.1021C182.369 27.0773 182.376 27.0495 182.376 27.0212C182.376 26.9929 182.369 26.965 182.355 26.9402C182.425 24.5634 182.248 22.1858 181.827 19.8455C181.089 15.4675 179.475 11.2634 176.426 7.9769C176.4 7.95527 176.37 7.93976 176.338 7.93157C176.306 7.92339 176.272 7.92275 176.24 7.92972C176.207 7.93668 176.177 7.95106 176.151 7.97173C176.125 7.9924 176.104 8.0188 176.09 8.04887C174.853 11.1854 175.285 14.9217 176.336 18.0523C176.898 19.745 177.707 21.3455 178.736 22.8021C179.811 24.2714 181.143 25.5429 181.995 27.1261Z" fill="#678366"/>
<path d="M176.786 9.44034C179.684 14.1362 181.701 19.7136 181.947 25.2611C181.947 25.363 181.785 25.387 181.773 25.2611C181.701 24.7633 181.629 24.2715 181.545 23.7798C180.285 22.6684 179.178 21.3937 178.256 19.9895C178.256 19.9895 178.256 19.9355 178.298 19.9595C179.292 21.1792 180.359 22.3387 181.491 23.4319C181.281 22.2025 181.035 20.997 180.747 19.8036L180.513 19.5457C180.465 19.4917 180.549 19.4018 180.603 19.4617L180.669 19.5397C180.263 17.911 179.758 16.3088 179.156 14.7419C178.352 13.9285 177.647 13.0226 177.056 12.0431C177.056 12.0431 177.056 12.0012 177.098 12.0431C177.512 12.6661 177.958 13.2667 178.436 13.8423C178.628 14.0642 178.844 14.2741 179.036 14.496C178.361 12.7909 177.559 11.139 176.635 9.55429C176.635 9.43434 176.744 9.35038 176.786 9.44034Z" fill="#111111"/>
<path d="M177.374 15.2397C178.31 16.4991 179.378 17.6985 180.249 19C180.249 19.0359 180.219 19.0779 180.189 19.0479C179.076 17.9147 178.108 16.6476 177.308 15.2757C177.303 15.2669 177.302 15.2566 177.305 15.2471C177.308 15.2375 177.314 15.2295 177.323 15.2247C177.332 15.2199 177.342 15.2188 177.351 15.2216C177.361 15.2244 177.369 15.2309 177.374 15.2397Z" fill="#111111"/>
<path d="M180.381 19.294L180.417 19.33C180.423 19.3355 180.427 19.3434 180.427 19.3518C180.428 19.3603 180.425 19.3686 180.42 19.3749C180.414 19.3813 180.406 19.3852 180.398 19.3857C180.389 19.3863 180.381 19.3835 180.375 19.3779L180.333 19.3359C180.327 19.3296 180.324 19.3213 180.325 19.3128C180.325 19.3044 180.329 19.2965 180.336 19.291C180.342 19.2854 180.35 19.2826 180.359 19.2832C180.367 19.2837 180.375 19.2876 180.381 19.294Z" fill="#111111"/>
<path d="M171.798 17.2847C172.137 19.9192 173.196 22.4094 174.859 24.4814C175.541 25.2912 176.385 25.9491 177.338 26.4125C178.412 26.9463 179.534 27.558 180.644 27.9898C181.174 29.3302 181.566 30.7206 181.815 32.1399L181.923 31.7681C181.215 25.6509 177.248 20.4153 172.176 17.0568C172.137 17.032 172.093 17.0185 172.047 17.0178C172.001 17.0172 171.955 17.0294 171.916 17.0532C171.877 17.0769 171.845 17.1111 171.824 17.1521C171.803 17.193 171.794 17.2389 171.798 17.2847Z" fill="#678366"/>
<path d="M173.659 21.2071C173.726 21.2482 173.79 21.2943 173.851 21.345C173.851 21.345 173.851 21.387 173.851 21.381L173.653 21.2671C173.593 21.2431 173.623 21.1891 173.659 21.2071Z" fill="#111111"/>
<path d="M188.159 38.3351H177.716L178.232 31.4922L178.43 29.2612H187.355L187.553 31.4922L188.159 38.3351Z" fill="#939F96"/>
<path d="M187.553 31.4922H178.232L178.43 29.2612H187.355L187.553 31.4922Z" fill="#3A3939"/>
<path d="M188.063 27.4321H177.716V29.7171H188.063V27.4321Z" fill="#939F96"/>
<path d="M213.534 38.3172V13.4825H207.274V38.3172H213.534Z" fill="#3A3939"/>
<path d="M213.534 14.8858V12.1571H207.274V14.8858H213.534Z" fill="#939F96"/>
<path d="M213.534 19.3957V18.3822H207.274V19.3957H213.534Z" fill="#939F96"/>
<path d="M213.534 35.0605V32.3318H207.274V35.0605H213.534Z" fill="#939F96"/>
<path d="M217.903 38.3172V9.35046H213.528V38.3172H217.903Z" fill="#939F96"/>
<path d="M217.015 23.216V12.0731H214.392V23.216H217.015Z" fill="#678366"/>
<path d="M249.049 35.1842L228.434 14.8199L225.358 17.9292L245.973 38.2934L249.049 35.1842Z" fill="#3A3939"/>
<path d="M243.605 31.0177L235.675 23.184L233.831 25.0478L241.761 32.8815L243.605 31.0177Z" fill="#939F96"/>
<path d="M225.327 38.3232V16.3193H217.897V38.3232H225.327Z" fill="#111111"/>
<path d="M225.333 35.9902V33.9391H217.903V35.9902H225.333Z" fill="#3A3939"/>
<path d="M225.333 32.5957V31.7981H217.903V32.5957H225.333Z" fill="#3A3939"/>
<path d="M199.166 38.3434L207.328 19.3413L202.613 17.3188L194.451 36.3209L199.166 38.3434Z" fill="#111111"/>
<path d="M200.027 36.321L200.786 34.552L196.071 32.5295L195.311 34.2986L200.027 36.321Z" fill="#3A3939"/>
<path d="M204.883 25.0253L205.643 23.2562L200.927 21.2338L200.168 23.0028L204.883 25.0253Z" fill="#3A3939"/>
<path d="M204.062 26.9296L204.358 26.2407L199.643 24.2183L199.347 24.9071L204.062 26.9296Z" fill="#3A3939"/>
<path d="M39.3411 33.3395V4.23486H68.4552V33.3395H39.3411ZM40.7154 5.62023V31.9482H67.0808V5.60224L40.7154 5.62023Z" fill="#3A3939"/>
<path d="M65.1843 26.8503V17.7405H44.6346V26.8503H65.1843Z" fill="#678366"/>
<path d="M45.2467 68.7651H52.1306V48.8902H45.2467V68.7651Z" fill="#3A3939"/>
<path d="M43.6382 87.3506V95.9927H58.1082V87.3506H43.6382Z" fill="#678366"/>
<path d="M39.3411 72.3996V43.3069H68.4552V72.3996H39.3411ZM40.7154 44.6803V71.0262H67.0808V44.6803H40.7154Z" fill="#3A3939"/>
<path d="M39.3411 111.472V82.3849H68.4552V111.472H39.3411ZM40.7154 83.7583V110.104H67.0808V83.7583H40.7154Z" fill="#3A3939"/>
<path d="M59.1587 24.0316V13.5125H48.6317V24.0316H59.1587Z" fill="#3A3939"/>
<path d="M59.1647 63.1096V52.5905H48.6377V63.1096H59.1647Z" fill="#678366"/>
<path d="M59.1647 102.188V91.6687H48.6377V102.188H59.1647Z" fill="#3A3939"/>
<path d="M138.501 263.748C198.294 263.748 246.765 257.22 246.765 249.168C246.765 241.116 198.294 234.589 138.501 234.589C78.708 234.589 30.2365 241.116 30.2365 249.168C30.2365 257.22 78.708 263.748 138.501 263.748Z" fill="#EBEBEB"/>
<path d="M8.50439 226.145L41.0035 226.001L73.5026 225.947L138.501 225.845L203.499 225.947L235.998 226.001L268.497 226.145L235.998 226.295L203.499 226.343L138.501 226.445L73.5026 226.343L41.0035 226.295L8.50439 226.145Z" fill="#263238"/>
<path d="M40.3317 119.37C40.3317 119.37 55.3359 117.271 51.8249 99.1832C51.8249 99.1832 35.0682 102.938 40.3317 119.37Z" fill="#38A926"/>
<path opacity="0.1" d="M40.3317 119.37C40.3317 119.37 55.3359 117.271 51.8249 99.1832C51.8249 99.1832 35.0682 102.938 40.3317 119.37Z" fill="black"/>
<path d="M41.0938 115.598C41.3883 114.682 41.7288 113.781 42.1141 112.899C42.1141 112.785 42.1141 112.665 42.1501 112.557C42.1501 112.305 42.1981 112.059 42.2161 111.807C42.2581 111.268 42.2881 110.728 42.3241 110.188C42.3841 109.109 42.4562 108.023 42.4742 106.944C42.4742 106.884 42.5642 106.89 42.5642 106.944C42.5642 108.029 42.5642 109.109 42.5642 110.194C42.5642 110.734 42.5162 111.274 42.4802 111.813C42.4802 111.933 42.4802 112.053 42.4802 112.173C43.3216 110.372 44.3261 108.652 45.481 107.034C45.9971 106.314 46.5453 105.622 47.1255 104.959C47.7256 104.275 48.3258 103.621 48.926 102.943C48.968 102.901 49.034 102.943 48.992 103.015C47.9137 104.205 46.9454 105.49 46.0992 106.854C45.643 107.543 45.2169 108.251 44.8028 108.971L44.9469 108.917C45.1209 108.839 45.301 108.767 45.481 108.701C45.8831 108.539 46.2912 108.389 46.6813 108.233C47.4856 107.939 48.2898 107.633 49.082 107.339C49.13 107.339 49.16 107.405 49.082 107.423C48.2838 107.741 47.4976 108.077 46.6813 108.419L45.523 108.917L44.9228 109.157C44.7973 109.219 44.6641 109.266 44.5267 109.295C44.2266 109.84 43.9266 110.386 43.6505 110.938C42.9533 112.34 42.34 113.781 41.814 115.256L41.7059 115.568C42.0904 115.338 42.4916 115.137 42.9063 114.968L44.4607 114.26C45.511 113.78 46.5553 113.289 47.5636 112.719C47.5747 112.713 47.5879 112.711 47.6003 112.714C47.6127 112.718 47.6232 112.726 47.6296 112.737C47.636 112.748 47.6376 112.761 47.6343 112.774C47.6309 112.786 47.6227 112.797 47.6116 112.803C46.5793 113.367 45.571 113.96 44.5387 114.524C44.0226 114.8 43.5004 115.076 42.9723 115.334C42.5322 115.589 42.0571 115.779 41.5619 115.898C41.0929 117.273 40.7946 118.701 40.6737 120.15C40.5116 122.195 40.5296 124.258 40.4816 126.309H40.4276C40.2775 124.45 40.1935 122.572 40.1815 120.707C40.2102 118.966 40.5182 117.241 41.0938 115.598Z" fill="#263238"/>
<path d="M43.4044 104.953C43.548 106.01 43.5962 107.077 43.5483 108.143H43.5063C43.4463 107.088 43.4343 106.032 43.3144 104.977C43.3084 104.917 43.3924 104.899 43.4044 104.953Z" fill="#263238"/>
<path d="M47.6896 105.858C48.3606 105.603 49.0074 105.288 49.6221 104.917C49.6701 104.881 49.7121 104.964 49.6641 104.994C49.0621 105.392 48.4049 105.699 47.7136 105.906C47.6776 105.936 47.6536 105.906 47.6896 105.858Z" fill="#263238"/>
<path d="M39.8574 148.097C39.8574 146.441 39.8994 144.786 39.9174 143.125C39.9474 137.625 39.9954 132.126 40.0915 126.627C40.1675 122.261 40.2695 117.895 40.3976 113.529C40.3989 113.517 40.4036 113.505 40.411 113.496C40.4184 113.486 40.4283 113.479 40.4396 113.475C40.4396 112.275 40.4396 111.076 40.4396 109.876C40.4396 109.846 40.4756 109.834 40.5116 109.834C40.5476 109.834 40.5836 109.834 40.5836 109.882V113.481C40.5937 113.486 40.6024 113.493 40.6087 113.503C40.615 113.512 40.6188 113.523 40.6196 113.535C40.8417 121.331 41.0397 129.079 41.0817 136.852C41.0817 138.429 41.0817 140.012 41.0817 141.59C41.1378 146.655 41.1558 151.723 41.1358 156.793C41.1358 157.602 41.1358 158.406 41.1358 159.192C41.1358 163.827 41.0877 168.463 41.0877 173.099C41.0877 173.351 40.8117 173.471 40.4876 173.483C40.1635 173.495 39.7914 173.363 39.7914 173.075C39.7914 167.966 39.7554 162.85 39.7554 157.74C39.8454 154.544 39.8334 151.317 39.8574 148.097Z" fill="#263238"/>
<path d="M46.1172 143.089C46.1172 143.089 53.3192 137.745 60.1791 141.356C67.039 144.966 68.1013 158.874 68.1013 158.874C68.1013 158.874 58.0485 160.313 51.7168 154.292C45.613 148.487 46.1172 143.089 46.1172 143.089Z" fill="#38A926"/>
<path d="M44.1547 143.395C45.4874 142.865 46.9318 142.677 48.3558 142.849C48.6472 142.797 48.9422 142.769 49.2381 142.765L50.2584 142.687L52.359 142.537C53.7814 142.429 55.2098 142.345 56.6322 142.201C56.6802 142.201 56.6922 142.285 56.6322 142.291C55.2218 142.471 53.8234 142.669 52.431 142.813C51.7048 142.885 50.9846 142.963 50.2524 143.011L49.6762 143.089C49.8923 143.137 50.1083 143.185 50.3184 143.245C51.4516 143.575 52.5477 144.021 53.5893 144.576C54.1895 144.678 54.7236 144.834 55.2818 144.966C56.17 145.176 57.0823 145.404 57.9465 145.638C59.699 146.1 61.4335 146.615 63.174 147.119C63.1832 147.123 63.1911 147.129 63.1967 147.137C63.2023 147.145 63.2053 147.154 63.2053 147.164C63.2053 147.174 63.2023 147.183 63.1967 147.192C63.1911 147.2 63.1832 147.206 63.174 147.209C61.4395 146.783 59.693 146.394 57.9525 145.98C57.1063 145.776 56.26 145.578 55.4138 145.38L54.7536 145.23C56.6905 146.431 58.4212 147.935 59.8791 149.686C61.2887 151.407 62.4857 153.292 63.4441 155.299C63.4441 155.353 63.396 155.401 63.366 155.347C62.1756 153.281 60.721 151.377 59.0388 149.686C59.0748 149.782 59.1048 149.878 59.1349 149.974C59.2669 150.4 59.3989 150.825 59.537 151.245C59.801 152.097 60.0711 152.942 60.3292 153.8C60.3292 153.854 60.2572 153.872 60.2392 153.8C59.9331 152.978 59.639 152.151 59.3569 151.323L58.9248 150.124L58.7087 149.494C58.7087 149.428 58.6607 149.362 58.6427 149.296C57.8379 148.514 56.9818 147.787 56.08 147.119C54.8915 146.244 53.6068 145.508 52.2509 144.924L52.323 145.296L52.539 146.28C52.677 146.963 52.8091 147.647 52.9471 148.331C53.2172 149.728 53.3852 151.137 53.6493 152.529C53.6493 152.589 53.5713 152.607 53.5593 152.529C53.2352 151.125 52.8151 149.746 52.503 148.331C52.347 147.629 52.1909 146.927 52.0409 146.22L51.8428 145.23C51.8068 145.05 51.7648 144.864 51.7408 144.678C51.6088 144.624 51.4827 144.564 51.3507 144.516C49.4541 143.815 47.3656 143.317 45.349 143.695C44.3943 143.873 43.4984 144.283 42.7404 144.89C41.9825 145.497 41.386 146.281 41.0038 147.173C40.9378 147.329 40.6917 147.233 40.7277 147.071C41.1178 145.344 42.5702 144.061 44.1547 143.395Z" fill="#263238"/>
<path d="M55.1978 149.332C55.4018 150.25 55.6059 151.131 55.7979 152.073C56.0254 152.95 56.1938 153.842 56.3021 154.742C56.3021 154.778 56.2541 154.778 56.2481 154.742C55.988 153.861 55.7875 152.963 55.6479 152.055C55.4739 151.155 55.2938 150.256 55.1198 149.35C55.0777 149.296 55.1858 149.278 55.1978 149.332Z" fill="#263238"/>
<path d="M62.1717 151.659C63.0899 152.121 63.9722 152.649 64.9445 153.032C65.0045 153.032 64.9445 153.146 64.9025 153.116C63.9621 152.689 63.0446 152.212 62.1537 151.689C62.1537 151.689 62.1537 151.647 62.1717 151.659Z" fill="#263238"/>
<path d="M44.4968 133.254C44.4968 133.254 53.3132 133.817 57.4184 128.006C61.5235 122.195 60.5993 113.9 60.5993 113.9C60.5993 113.9 51.3327 115.028 47.6596 119.196C43.9866 123.364 44.4968 133.254 44.4968 133.254Z" fill="#38A926"/>
<path d="M40.3615 141.95C40.6616 141.002 41.0457 140.072 41.3998 139.149C41.7539 138.225 42.108 137.35 42.4981 136.51C43.2856 134.733 44.1671 133 45.1389 131.316C45.739 130.249 46.4292 129.211 47.1134 128.186C47.1134 128.03 47.1614 127.874 47.1854 127.712C47.2214 127.442 47.2635 127.166 47.3055 126.896C47.3955 126.339 47.4915 125.781 47.5815 125.223C47.7856 124.024 48.0377 122.824 48.2297 121.583C48.2297 121.523 48.3318 121.529 48.3257 121.583C48.1457 122.782 48.0257 123.982 47.8576 125.181C47.7736 125.781 47.6956 126.381 47.6056 126.98C47.6056 127.19 47.5395 127.406 47.5035 127.616C48.8513 125.653 50.308 123.767 51.8667 121.967C52.0768 121.721 52.2989 121.487 52.5089 121.247C52.5089 121.175 52.5689 121.109 52.5929 121.043C52.659 120.875 52.725 120.707 52.785 120.539C52.917 120.192 53.0431 119.838 53.1691 119.49C53.4152 118.8 53.6372 118.104 53.8233 117.391C53.8285 117.381 53.8373 117.373 53.8479 117.368C53.8585 117.364 53.8703 117.364 53.8812 117.367C53.892 117.371 53.9012 117.378 53.9071 117.388C53.913 117.398 53.9152 117.41 53.9133 117.421C53.7333 118.14 53.5472 118.866 53.3131 119.58C53.2111 119.922 53.0971 120.263 52.9771 120.605C52.9771 120.659 52.935 120.713 52.917 120.773C54.0454 119.544 55.2157 118.374 56.404 117.175C56.4132 117.169 56.424 117.167 56.4347 117.168C56.4454 117.169 56.4554 117.174 56.463 117.182C56.4707 117.19 56.4755 117.199 56.4768 117.21C56.478 117.221 56.4757 117.232 56.47 117.241C54.1909 119.623 52.102 122.18 50.2223 124.887C50.4372 124.821 50.6556 124.767 50.8765 124.725C51.5547 124.594 52.2388 124.498 52.923 124.408C54.3574 124.228 55.7918 124.042 57.2202 123.808C57.2803 123.808 57.3043 123.886 57.2202 123.898C55.8519 124.168 54.5015 124.498 53.1451 124.785C52.5029 124.929 51.8607 125.055 51.2186 125.181C50.6931 125.295 50.1758 125.443 49.6701 125.625C49.5261 125.829 49.376 126.027 49.238 126.225C48.5898 127.166 47.9717 128.126 47.3595 129.097L48.2597 128.924C48.9439 128.792 49.6281 128.666 50.3123 128.552C51.6567 128.33 53.0011 128.096 54.3274 127.796C54.3874 127.796 54.4115 127.874 54.3274 127.886C52.9771 128.204 51.6447 128.57 50.3063 128.93C49.6581 129.097 49.0099 129.253 48.3558 129.397L47.3775 129.613C47.2473 129.645 47.1149 129.667 46.9814 129.679C45.689 131.766 44.4887 133.901 43.3804 136.084C42.8882 137.044 42.4201 138.009 41.958 138.981C41.4958 139.952 41.0817 141.008 40.6496 142.022C40.6076 142.255 40.2895 142.171 40.3615 141.95Z" fill="#263238"/>
<path d="M49.3822 121.697C49.5502 120.857 49.7303 120.018 49.9163 119.184C49.9163 119.124 50.0124 119.184 50.0064 119.184C49.8383 120.012 49.6763 120.839 49.5262 121.667C49.4024 122.498 49.2361 123.323 49.0281 124.138C49.0281 124.138 49.0281 124.138 49.0281 124.138C49.0903 123.317 49.2086 122.501 49.3822 121.697Z" fill="#263238"/>
<path d="M54.5255 121.457C54.9336 121.253 55.3658 121.085 55.7919 120.923L56.4641 120.659L56.8062 120.521C56.9362 120.482 57.0611 120.428 57.1783 120.36C57.2443 120.312 57.2863 120.425 57.2203 120.437C57.0885 120.474 56.9616 120.527 56.8422 120.593L56.5061 120.743L55.8639 121.025C55.4407 121.223 55.0057 121.396 54.5615 121.541C54.5514 121.542 54.5413 121.54 54.5325 121.534C54.5238 121.529 54.5169 121.521 54.5129 121.512C54.5089 121.503 54.508 121.492 54.5102 121.482C54.5125 121.473 54.5179 121.464 54.5255 121.457Z" fill="#263238"/>
<path d="M35.4701 126.327C35.4701 126.327 30.1346 116.365 22.0143 114.824C13.8941 113.283 8.93066 121.631 8.93066 121.631C8.93066 121.631 14.8663 129.187 22.3024 130.495C29.7385 131.802 35.4701 126.327 35.4701 126.327Z" fill="#38A926"/>
<path d="M16.5769 119.286C18.692 119.003 20.8371 119.029 22.9447 119.364L22.5846 119.172C21.9844 118.866 21.3843 118.572 20.7841 118.242C19.5457 117.559 18.2738 116.939 16.973 116.383C16.9661 116.382 16.9597 116.378 16.9542 116.374C16.9487 116.369 16.9444 116.363 16.9414 116.357C16.9385 116.35 16.937 116.343 16.9371 116.336C16.9373 116.329 16.939 116.322 16.9422 116.315C16.9454 116.309 16.95 116.303 16.9556 116.299C16.9612 116.295 16.9678 116.292 16.9748 116.29C16.9818 116.289 16.989 116.289 16.996 116.29C17.0029 116.292 17.0094 116.295 17.015 116.299C18.2814 116.899 19.5958 117.385 20.8741 117.973C21.5103 118.266 22.1345 118.572 22.7586 118.896C23.1548 119.112 23.5989 119.31 23.995 119.562C25.7767 119.923 27.5078 120.499 29.1504 121.277C28.8143 120.911 28.4782 120.539 28.1362 120.174C27.3799 119.346 26.6357 118.476 25.8075 117.721C25.7655 117.685 25.8075 117.619 25.8735 117.661C26.7198 118.428 27.62 119.142 28.4422 119.946C28.8444 120.336 29.2225 120.737 29.6006 121.145C29.7866 121.355 29.9727 121.565 30.1467 121.787C32.9361 123.28 35.3586 125.374 37.2394 127.917C39.1201 130.46 40.412 133.389 41.0218 136.492C41.0218 136.546 40.9557 136.576 40.9377 136.522C39.7943 132.722 37.7475 129.255 34.9721 126.417C31.9866 123.372 28.2267 121.199 24.097 120.132C21.6465 119.507 19.1121 119.276 16.5889 119.448C16.5707 119.445 16.5541 119.435 16.5417 119.421C16.5293 119.408 16.5219 119.39 16.5205 119.372C16.5191 119.353 16.5239 119.335 16.5341 119.319C16.5443 119.304 16.5594 119.292 16.5769 119.286Z" fill="#263238"/>
<path opacity="0.1" d="M8.93066 121.631C8.93066 121.631 14.8663 129.187 22.3024 130.495C27.986 131.496 32.6613 128.54 34.5578 127.082L34.966 126.405C34.966 126.405 31.1249 123.166 23.8568 121.301C16.5888 119.436 8.93066 121.631 8.93066 121.631Z" fill="black"/>
<path d="M21.2942 115.736C21.9148 116.104 22.5158 116.504 23.0947 116.935C23.6601 117.361 24.1845 117.839 24.6612 118.362C24.6699 118.372 24.6745 118.385 24.674 118.398C24.6734 118.41 24.6677 118.423 24.6582 118.431C24.6486 118.44 24.636 118.445 24.623 118.444C24.6101 118.444 24.5979 118.438 24.5891 118.428C24.055 117.961 23.5088 117.493 22.9507 117.049C22.4061 116.617 21.837 116.216 21.2462 115.85C21.1922 115.784 21.2402 115.706 21.2942 115.736Z" fill="#263238"/>
<path d="M16.8351 117.421C17.1352 117.547 17.4353 117.655 17.7473 117.781L18.6476 118.158C18.7136 118.158 18.6836 118.29 18.6476 118.26L17.7113 117.901C17.4113 117.781 17.1112 117.637 16.8111 117.517C16.7571 117.487 16.7811 117.403 16.8351 117.421Z" fill="#263238"/>
<path d="M36.5385 138.891C36.5385 138.891 35.1101 148.774 27.674 152.229C20.238 155.683 11.1754 152.229 11.1754 152.229C11.1754 152.229 14.7404 130.825 36.5385 138.891Z" fill="#38A926"/>
<path d="M16.3007 145.77C16.9849 145.692 17.6691 145.578 18.3472 145.452L19.3435 145.266L19.8657 145.158C20.0637 144.972 20.2618 144.786 20.4658 144.6C21.8763 143.358 23.3993 142.25 25.0151 141.29C25.895 140.771 26.8048 140.304 27.7399 139.893H27.6018L25.1532 140C23.5207 140.072 21.8882 140.108 20.2618 140.216C20.2545 140.219 20.2467 140.22 20.239 140.219C20.2314 140.218 20.224 140.215 20.2177 140.211C20.2113 140.206 20.2061 140.2 20.2025 140.194C20.1989 140.187 20.1971 140.179 20.1971 140.171C20.1971 140.164 20.1989 140.156 20.2025 140.149C20.2061 140.142 20.2113 140.136 20.2177 140.132C20.224 140.128 20.2314 140.125 20.239 140.124C20.2467 140.123 20.2545 140.124 20.2618 140.126C21.9002 140.012 23.5267 139.833 25.1592 139.695L27.5598 139.479L28.7602 139.377L29.0722 139.341C29.4984 139.185 29.9245 139.035 30.3566 138.897C32.3832 138.204 34.5625 138.085 36.6524 138.555C38.5249 139.029 40.3914 140.258 40.8535 142.225C40.8535 142.291 40.7635 142.339 40.7335 142.273C40.0373 140.624 38.2068 139.797 36.5323 139.455C35.4217 139.244 34.2834 139.222 33.1654 139.389C33.0862 139.897 32.9596 140.397 32.7873 140.882C32.5832 141.578 32.3792 142.273 32.1871 142.969C31.767 144.354 31.2989 145.728 30.8908 147.119C30.8873 147.128 30.8812 147.136 30.8732 147.142C30.8651 147.148 30.8555 147.15 30.8457 147.15C30.8359 147.15 30.8264 147.148 30.8183 147.142C30.8103 147.136 30.8041 147.128 30.8007 147.119C31.1488 145.734 31.4369 144.33 31.773 142.921L32.2771 140.876C32.3863 140.406 32.5246 139.943 32.6913 139.491C32.0396 139.607 31.3945 139.757 30.7587 139.941C29.6117 140.282 28.4872 140.694 27.3918 141.176C27.2837 141.884 27.1217 142.579 26.9597 143.275C26.7616 144.145 26.5335 145.008 26.2575 145.86C26.2575 145.871 26.253 145.882 26.2452 145.889C26.2373 145.897 26.2266 145.902 26.2154 145.902C26.2043 145.902 26.1936 145.897 26.1857 145.889C26.1779 145.882 26.1734 145.871 26.1734 145.86C26.1763 145.806 26.1763 145.752 26.1734 145.698C26.3355 144.888 26.5155 144.085 26.6896 143.299C26.8276 142.651 26.9537 141.998 27.0917 141.344C26.1674 141.764 25.2612 142.213 24.3849 142.717C24.3849 142.921 24.3129 143.125 24.2889 143.317C24.2349 143.653 24.1689 143.989 24.1089 144.33C23.9708 145.092 23.8148 145.854 23.6347 146.603C23.3074 148.055 22.8926 149.484 22.3924 150.885C22.3987 150.893 22.4022 150.903 22.4022 150.912C22.4022 150.922 22.3987 150.932 22.3924 150.939L22.3504 150.987C22.3144 151.029 22.2663 150.987 22.2723 150.945C22.6144 149.476 23.0106 148.025 23.3346 146.555C23.4907 145.824 23.6527 145.092 23.8028 144.354C23.8748 143.989 23.9408 143.617 24.0128 143.245C24.0128 143.143 24.0488 143.029 24.0668 142.915C23.0649 143.504 22.0971 144.148 21.168 144.846C19.5661 146.05 18.0829 147.403 16.7388 148.888C16.6848 148.948 16.5767 148.888 16.6308 148.798C17.1937 148.049 17.7947 147.328 18.4313 146.639C18.8034 146.238 19.1935 145.854 19.5896 145.476H19.4636L18.4193 145.638C17.7291 145.728 17.0389 145.794 16.3487 145.872C16.2647 145.866 16.2407 145.776 16.3007 145.77Z" fill="#263238"/>
<path d="M21.5223 149.122C21.5223 149.038 21.5223 148.948 21.5643 148.864C21.6006 148.758 21.6306 148.65 21.6542 148.54C21.8042 147.881 21.9361 147.215 22.056 146.543C22.056 146.501 22.134 146.513 22.134 146.543C22.0888 147.43 21.8983 148.303 21.5703 149.128C21.5703 149.128 21.5103 149.128 21.5163 149.128L21.5223 149.122Z" fill="#263238"/>
<path d="M27.746 148.966C27.7474 148.955 27.7531 148.944 27.762 148.936C27.7708 148.929 27.7822 148.924 27.794 148.924C27.998 148.049 28.2021 147.173 28.3942 146.292C28.4902 145.83 28.5862 145.362 28.6762 144.9C28.7242 144.648 28.7663 144.402 28.8143 144.151C28.8321 143.93 28.8847 143.713 28.9703 143.509C28.9745 143.501 28.9806 143.495 28.9879 143.491C28.9953 143.486 29.0037 143.484 29.0123 143.484C29.0209 143.484 29.0293 143.486 29.0367 143.491C29.0441 143.495 29.0502 143.501 29.0543 143.509C29.0636 143.958 29.0008 144.405 28.8683 144.834C28.7783 145.314 28.6822 145.8 28.5802 146.28C28.3641 147.251 28.1181 148.223 27.842 149.182C27.842 149.195 27.8369 149.207 27.8279 149.216C27.8189 149.225 27.8067 149.23 27.794 149.23C27.7813 149.23 27.769 149.225 27.76 149.216C27.751 149.207 27.746 149.195 27.746 149.182V148.966Z" fill="#263238"/>
<path d="M16.9789 142.927C18.3353 142.741 19.6917 142.543 21.0541 142.381C21.1081 142.381 21.1321 142.459 21.0541 142.465C19.7037 142.669 18.3413 142.837 16.9789 143.017C16.9429 143.023 16.9189 142.933 16.9789 142.927Z" fill="#263238"/>
<path d="M40.3435 115.688C40.3435 115.688 44.8747 95.7467 23.4487 87.6744C23.4487 87.6744 17.5071 113.924 40.3435 115.688Z" fill="#38A926"/>
<path d="M37.5226 99.8189C37.5226 99.7589 37.6186 99.7589 37.6186 99.8189C37.5406 100.958 37.4986 102.098 37.3787 103.231C37.375 103.242 37.3681 103.251 37.359 103.258C37.3498 103.264 37.3389 103.268 37.3277 103.268C37.3165 103.268 37.3056 103.264 37.2964 103.258C37.2873 103.251 37.2804 103.242 37.2767 103.231C37.3187 102.086 37.4387 100.952 37.5226 99.8189Z" fill="#263238"/>
<path d="M27.2418 103.627C28.5862 104.167 29.9366 104.677 31.275 105.24C31.311 105.24 31.275 105.312 31.275 105.3C29.9186 104.791 28.5802 104.239 27.2358 103.717C27.1638 103.693 27.1878 103.603 27.2418 103.627Z" fill="#263238"/>
<path d="M25.2073 94.4273C26.5177 95.0316 27.7904 95.7145 29.0184 96.4724C29.0311 96.4803 29.0402 96.493 29.0435 96.5076C29.0469 96.5222 29.0443 96.5376 29.0364 96.5503C29.0284 96.5631 29.0157 96.5721 29.0011 96.5755C28.9865 96.5789 28.9711 96.5763 28.9584 96.5683C27.716 95.8427 26.4496 95.147 25.1533 94.5053C25.1053 94.5113 25.1533 94.4033 25.2073 94.4273Z" fill="#263238"/>
<path d="M25.5313 191.397H56.458L56.458 158.82H25.5313L25.5313 191.397Z" fill="#37474F"/>
<path d="M58.5886 170.347H57.0042V226.145H58.5886V170.347Z" fill="#263238"/>
<path d="M25.1533 170.347H23.5688V226.145H25.1533V170.347Z" fill="#263238"/>
<path d="M41.0278 170.347H39.4434V226.145H41.0278V170.347Z" fill="#263238"/>
<path d="M24.361 193.82H57.7964V189.31H24.361V193.82Z" fill="#263238"/>
<path d="M75.0931 124.48H44.8026V203.901H75.0931V124.48Z" fill="#38A926"/>
<path opacity="0.2" d="M75.0931 124.48H44.8026V203.901H75.0931V124.48Z" fill="black"/>
<path d="M232.205 124.48H201.915V203.901H232.205V124.48Z" fill="#38A926"/>
<path opacity="0.2" d="M232.205 124.48H201.915V203.901H232.205V124.48Z" fill="black"/>
<path d="M201.921 68.5732H75.087V203.901H201.921V68.5732Z" fill="#38A926"/>
<path opacity="0.2" d="M201.921 68.5732H75.087V203.901H201.921V68.5732Z" fill="black"/>
<g opacity="0.2">
<path d="M202.653 124.48H201.933V203.895H202.653V124.48Z" fill="black"/>
<path d="M75.4471 124.48H74.7269V203.895H75.4471V124.48Z" fill="black"/>
<path d="M202.665 180.872H74.7271V156.217H202.665V180.872ZM75.4833 180.11H201.921V156.955H75.4833V180.11Z" fill="black"/>
</g>
<g opacity="0.2">
<path d="M82.9854 111.999C82.8619 112.013 82.7478 112.071 82.6649 112.164C82.582 112.256 82.5361 112.376 82.5361 112.5C82.5361 112.624 82.582 112.744 82.6649 112.836C82.7478 112.929 82.8619 112.987 82.9854 113.001C83.1088 112.987 83.2229 112.929 83.3058 112.836C83.3887 112.744 83.4346 112.624 83.4346 112.5C83.4346 112.376 83.3887 112.256 83.3058 112.164C83.2229 112.071 83.1088 112.013 82.9854 111.999Z" fill="black"/>
<path d="M83.8437 173.321C83.7203 173.335 83.6062 173.393 83.5233 173.486C83.4404 173.578 83.3945 173.698 83.3945 173.822C83.3945 173.946 83.4404 174.066 83.5233 174.158C83.6062 174.251 83.7203 174.309 83.8437 174.323C83.9672 174.309 84.0813 174.251 84.1642 174.158C84.2471 174.066 84.293 173.946 84.293 173.822C84.293 173.698 84.2471 173.578 84.1642 173.486C84.0813 173.393 83.9672 173.335 83.8437 173.321Z" fill="black"/>
<path d="M118.125 163.744C118.125 163.69 118.071 163.642 118.047 163.594C118.027 163.56 117.998 163.533 117.964 163.513C117.93 163.494 117.891 163.484 117.852 163.484C117.813 163.484 117.774 163.494 117.74 163.513C117.706 163.533 117.677 163.56 117.657 163.594C117.628 163.642 117.601 163.692 117.579 163.744C117.291 164.337 118.407 164.337 118.125 163.744Z" fill="black"/>
<path d="M68.0529 174.581C68.0529 174.533 68.0049 174.479 67.9749 174.431C67.9546 174.397 67.926 174.37 67.8919 174.35C67.8577 174.331 67.8192 174.321 67.78 174.321C67.7408 174.321 67.7023 174.331 67.6681 174.35C67.634 174.37 67.6054 174.397 67.5851 174.431C67.5551 174.479 67.5311 174.533 67.5071 174.581C67.2253 175.175 68.3407 175.175 68.0529 174.581Z" fill="black"/>
<path d="M87.3006 115.058C87.1987 115.058 87.101 115.098 87.029 115.17C86.957 115.242 86.9165 115.34 86.9165 115.442C86.9165 115.544 86.957 115.641 87.029 115.713C87.101 115.785 87.1987 115.826 87.3006 115.826C87.4025 115.826 87.5002 115.785 87.5722 115.713C87.6442 115.641 87.6847 115.544 87.6847 115.442C87.6847 115.34 87.6442 115.242 87.5722 115.17C87.5002 115.098 87.4025 115.058 87.3006 115.058Z" fill="black"/>
<path d="M60.5989 153.926C60.5061 153.938 60.4208 153.983 60.3589 154.053C60.2971 154.123 60.2629 154.213 60.2629 154.307C60.2629 154.4 60.2971 154.491 60.3589 154.561C60.4208 154.631 60.5061 154.676 60.5989 154.688C60.6916 154.676 60.777 154.631 60.8388 154.561C60.9007 154.491 60.9348 154.4 60.9348 154.307C60.9348 154.213 60.9007 154.123 60.8388 154.053C60.777 153.983 60.6916 153.938 60.5989 153.926Z" fill="black"/>
<path d="M110.893 93.6959C110.793 93.5973 110.659 93.5421 110.518 93.5421C110.378 93.5421 110.243 93.5973 110.143 93.6959C110.052 93.7905 109.988 93.9073 109.956 94.0347C109.924 94.162 109.927 94.2954 109.963 94.4215C110.007 94.5334 110.084 94.6294 110.184 94.697C110.283 94.7647 110.401 94.8008 110.521 94.8008C110.642 94.8008 110.759 94.7647 110.859 94.697C110.958 94.6294 111.035 94.5334 111.079 94.4215C111.115 94.295 111.117 94.1611 111.084 94.0336C111.052 93.9061 110.986 93.7896 110.893 93.6959Z" fill="black"/>
<path d="M88.0447 170.485C87.9448 170.386 87.81 170.331 87.6696 170.331C87.5292 170.331 87.3945 170.386 87.2945 170.485C87.2036 170.578 87.139 170.694 87.1074 170.82C87.0757 170.947 87.0782 171.079 87.1145 171.204C87.1597 171.314 87.2366 171.408 87.3355 171.475C87.4343 171.541 87.5506 171.576 87.6696 171.576C87.7886 171.576 87.9049 171.541 88.0038 171.475C88.1026 171.408 88.1796 171.314 88.2248 171.204C88.2623 171.079 88.2654 170.946 88.2337 170.82C88.202 170.693 88.1367 170.577 88.0447 170.485Z" fill="black"/>
<path d="M193.422 175.654C193.556 175.654 193.684 175.601 193.779 175.507C193.873 175.412 193.926 175.284 193.926 175.15C193.926 175.017 193.873 174.889 193.779 174.794C193.684 174.7 193.556 174.647 193.422 174.647C193.288 174.647 193.16 174.7 193.066 174.794C192.971 174.889 192.918 175.017 192.918 175.15C192.918 175.284 192.971 175.412 193.066 175.507C193.16 175.601 193.288 175.654 193.422 175.654Z" fill="black"/>
<path d="M162.97 108.749C163.093 108.735 163.208 108.677 163.29 108.584C163.373 108.492 163.419 108.372 163.419 108.248C163.419 108.124 163.373 108.004 163.29 107.912C163.208 107.819 163.093 107.761 162.97 107.747C162.847 107.761 162.732 107.819 162.649 107.912C162.567 108.004 162.521 108.124 162.521 108.248C162.521 108.372 162.567 108.492 162.649 108.584C162.732 108.677 162.847 108.735 162.97 108.749Z" fill="black"/>
<path d="M209.669 170.922C209.669 170.97 209.717 171.024 209.747 171.072C209.767 171.106 209.796 171.134 209.83 171.153C209.864 171.172 209.902 171.182 209.942 171.182C209.981 171.182 210.019 171.172 210.053 171.153C210.088 171.134 210.116 171.106 210.137 171.072C210.167 171.024 210.191 170.97 210.215 170.922C210.52 170.329 209.387 170.329 209.669 170.922Z" fill="black"/>
<path d="M147.665 140.726C147.765 140.825 147.9 140.88 148.041 140.88C148.181 140.88 148.316 140.825 148.416 140.726C148.508 140.632 148.573 140.516 148.605 140.388C148.636 140.26 148.633 140.127 148.596 140.001C148.551 139.891 148.474 139.797 148.375 139.73C148.276 139.664 148.16 139.629 148.041 139.629C147.922 139.629 147.805 139.664 147.706 139.73C147.608 139.797 147.531 139.891 147.485 140.001C147.45 140.127 147.448 140.26 147.479 140.387C147.511 140.514 147.575 140.631 147.665 140.726Z" fill="black"/>
</g>
<g opacity="0.2">
<path d="M75.4832 180.872C75.4832 180.872 107.424 187.097 138.681 187.097C169.938 187.097 201.915 180.872 201.915 180.872H75.4832Z" fill="black"/>
</g>
<path d="M232.199 196.914H44.8026V203.895H232.199V196.914Z" fill="#37474F"/>
<path d="M85.374 203.901L77.6738 219.656L69.9376 235.495H63.1978L65.7005 219.656L68.1912 203.901H85.374Z" fill="#37474F"/>
<path d="M68.1912 203.901H85.3801L80.7047 213.455H66.6848L68.1912 203.901Z" fill="#263238"/>
<path d="M210.917 235.495H204.183L196.447 219.656L188.741 203.901H205.93L208.414 219.656L210.917 235.495Z" fill="#37474F"/>
<path d="M207.436 213.455H193.416L188.741 203.901H205.924L207.436 213.455Z" fill="#263238"/>
<path d="M212.501 169.855C211.949 168.193 182.523 129.337 180.512 128.594C180.284 128.492 167.129 137.847 167.129 137.847C166.589 138.573 141.586 133.289 141.586 133.289L141.333 163.432L186.88 162.466C186.88 162.466 193.032 166.064 198.662 169.021C202.125 170.82 205.191 172.38 206.068 172.619C208.36 173.195 213.06 171.504 212.501 169.855Z" fill="#AD6359"/>
<path d="M206.085 172.613C205.203 172.386 202.142 170.85 198.685 169.015C193.062 166.07 186.91 162.448 186.91 162.448L176.773 162.67L160.875 137.092C164.362 137.691 166.96 138.075 167.135 137.847C167.135 137.847 180.278 128.492 180.512 128.594C182.523 129.337 211.949 168.175 212.501 169.849C213.053 171.522 208.36 173.201 206.085 172.613Z" fill="white"/>
<path d="M212.765 169.903C212.165 168.2 182.631 129.373 180.566 128.606C179.786 128.306 173.364 132.282 167.129 137.848L186.22 162.88C186.22 162.88 203.829 172.206 206.182 172.805C208.534 173.405 213.348 171.606 212.765 169.903Z" fill="#38A926"/>
<path d="M210.791 170.526C205.677 164.139 185.65 137.895 181.077 131.197C181.041 131.137 181.077 131.113 181.119 131.161C186.328 137.386 206.14 163.792 210.899 170.449C210.995 170.586 210.899 170.676 210.791 170.526Z" fill="#263238"/>
<path d="M202.881 171.348C202.312 170.638 201.896 169.818 201.66 168.94C201.423 168.062 201.371 167.144 201.506 166.244C201.741 164.624 202.589 163.155 203.877 162.142C203.919 162.142 203.973 162.184 203.937 162.22C202.817 163.422 202.116 164.954 201.941 166.586C201.766 168.219 202.125 169.865 202.965 171.276C202.974 171.287 202.979 171.302 202.978 171.316C202.977 171.331 202.97 171.345 202.959 171.354C202.948 171.364 202.933 171.368 202.918 171.367C202.904 171.366 202.89 171.359 202.881 171.348Z" fill="#263238"/>
<path d="M188.423 164.403C186.406 161.825 185.026 158.106 185.926 154.868C185.962 154.742 186.136 154.79 186.16 154.898C186.697 158.085 187.576 161.206 188.783 164.205C188.797 164.251 188.794 164.301 188.776 164.345C188.758 164.39 188.725 164.427 188.683 164.45C188.641 164.473 188.592 164.481 188.545 164.473C188.497 164.464 188.454 164.44 188.423 164.403Z" fill="#263238"/>
<path d="M190.715 165.819C188.699 163.24 187.318 159.521 188.219 156.283C188.255 156.157 188.429 156.205 188.447 156.313C188.989 159.499 189.868 162.62 191.07 165.621C191.089 165.667 191.091 165.719 191.075 165.766C191.059 165.814 191.025 165.854 190.981 165.878C190.937 165.903 190.886 165.91 190.837 165.899C190.788 165.888 190.745 165.86 190.715 165.819Z" fill="#263238"/>
<path d="M193.056 167.234C191.039 164.655 189.659 160.937 190.559 157.698C190.589 157.572 190.769 157.62 190.787 157.728C191.33 160.915 192.209 164.035 193.41 167.036C193.43 167.082 193.432 167.134 193.415 167.182C193.399 167.229 193.366 167.269 193.322 167.294C193.278 167.318 193.227 167.326 193.178 167.315C193.128 167.304 193.085 167.275 193.056 167.234Z" fill="#263238"/>
<path d="M195.373 168.649C193.35 166.07 191.976 162.352 192.876 159.108C192.876 158.988 193.086 159.036 193.104 159.144C193.644 162.331 194.523 165.451 195.727 168.451C195.746 168.498 195.748 168.55 195.732 168.597C195.716 168.645 195.682 168.685 195.638 168.709C195.595 168.734 195.543 168.741 195.494 168.73C195.445 168.719 195.402 168.69 195.373 168.649Z" fill="#263238"/>
<path d="M176.155 137.554C173.935 134.627 178.49 131.178 180.711 134.111C182.931 137.044 178.376 140.486 176.155 137.554Z" fill="#263238"/>
<path d="M187.276 169.393C188.021 166.61 187.529 163.6 187.402 160.769C187.394 160.707 187.371 160.648 187.336 160.596C187.3 160.545 187.253 160.502 187.199 160.472C187.144 160.441 187.083 160.424 187.02 160.422C186.958 160.419 186.895 160.431 186.838 160.457C186.83 160.447 186.819 160.439 186.807 160.433C186.795 160.428 186.782 160.425 186.769 160.425C186.756 160.425 186.743 160.428 186.731 160.433C186.719 160.439 186.709 160.447 186.7 160.457C184.454 162.467 182.776 165.032 181.833 167.894C181.317 169.573 181.515 172.044 183.633 172.53C185.596 172.967 186.838 171.018 187.276 169.393ZM185.206 171.156C182.175 173.051 182.403 168.841 182.835 167.618C183.129 166.834 183.474 166.071 183.867 165.333C184.709 163.818 185.626 162.347 186.616 160.925C186.616 162.322 186.688 163.708 186.718 165.123C186.754 166.76 186.88 170.113 185.206 171.156Z" fill="#263238"/>
<path d="M177.992 152.445C176.45 153.944 177.56 156.163 178.862 157.339C181.146 159.306 183.907 160.638 186.868 161.201C186.881 161.204 186.895 161.203 186.908 161.2C186.921 161.197 186.932 161.191 186.942 161.182C186.952 161.173 186.96 161.162 186.965 161.15C186.97 161.137 186.972 161.124 186.97 161.111C187.033 161.105 187.094 161.084 187.147 161.05C187.2 161.016 187.245 160.97 187.277 160.916C187.309 160.861 187.328 160.8 187.332 160.737C187.336 160.674 187.325 160.611 187.301 160.553C185.95 158.064 184.816 155.228 182.739 153.224C181.527 152.085 179.456 151.029 177.992 152.445ZM184.48 157.195C185.176 158.394 185.806 159.641 186.544 160.823C184.962 160.116 183.418 159.327 181.917 158.46C181.195 158.035 180.505 157.558 179.852 157.033C178.85 156.211 176.48 152.721 180.057 152.781C182.031 152.817 183.652 155.755 184.48 157.195Z" fill="#263238"/>
<path d="M140.205 124.048H119.763C119.763 124.048 98.3795 113.78 81.1546 117.901C61.4091 122.644 58.8824 147.425 73.6405 156.187C92.3418 167.294 175.561 165.141 175.561 165.141L157.556 134.675C157.556 134.675 129.882 128.852 104.789 129.697L140.199 134.495L140.205 124.048Z" fill="#263238"/>
<path d="M158.768 136.66C158.748 136.61 158.736 136.558 158.732 136.504L158.696 136.372C158.696 136.276 158.648 136.18 158.618 136.078C158.56 135.874 158.49 135.674 158.408 135.479C158.336 135.281 158.246 135.089 158.156 134.879C158.058 134.691 157.946 134.51 157.82 134.339C157.82 134.339 157.79 134.339 157.772 134.339C157.762 134.337 157.752 134.337 157.742 134.339C157.742 134.339 157.712 134.339 157.694 134.339C157.68 134.336 157.666 134.336 157.652 134.339C154.609 133.739 133.928 130.813 130.855 130.465C127.782 130.117 124.643 129.823 121.534 129.565C115.33 129.027 109.102 128.803 102.875 128.894C102.275 128.894 101.71 128.924 101.128 128.948C101.002 128.906 100.87 128.882 100.744 128.852C100.444 128.78 100.144 128.708 99.844 128.648C99.2858 128.54 98.7157 128.456 98.1515 128.372C96.9512 128.192 95.7928 128.066 94.6225 127.85C94.6082 127.85 94.5944 127.856 94.5843 127.866C94.5742 127.876 94.5685 127.89 94.5685 127.904C94.5685 127.918 94.5742 127.932 94.5843 127.942C94.5944 127.952 94.6082 127.958 94.6225 127.958C95.8228 128.216 96.9632 128.558 98.1395 128.816C98.4816 128.888 98.8177 128.966 99.1598 129.032C96.8791 129.152 94.5985 129.325 92.3239 129.535C92.3119 129.539 92.3014 129.547 92.294 129.557C92.2866 129.567 92.2826 129.58 92.2826 129.592C92.2826 129.605 92.2866 129.617 92.294 129.627C92.3014 129.638 92.3119 129.645 92.3239 129.649C95.4207 129.463 98.5416 129.439 101.65 129.493C104.759 129.547 107.808 129.613 110.887 129.793C117.117 130.147 123.335 130.705 129.54 131.352C133.021 131.718 154.105 134.795 157.598 134.951H157.64C157.67 135.029 157.7 135.113 157.736 135.191C157.832 135.377 157.928 135.569 158.036 135.748C158.131 135.93 158.235 136.106 158.348 136.276C158.402 136.36 158.456 136.444 158.516 136.528L158.606 136.654C158.642 136.694 158.672 136.738 158.696 136.786C158.69 136.78 158.81 136.732 158.768 136.66Z" fill="#455A64"/>
<path d="M169.073 163.306C167.957 161.507 167.009 159.629 165.988 157.794C164.968 155.959 163.942 154.112 162.916 152.271C160.869 148.6 153.523 136.258 152.797 135.394C152.749 135.341 152.659 135.394 152.677 135.466C153.025 136.42 157.61 144.594 158.678 146.411C160.791 150.058 163.006 153.608 165.196 157.207C165.796 158.232 166.463 159.246 167.099 160.271C167.735 161.297 168.407 162.292 168.983 163.342C169.007 163.432 169.109 163.372 169.073 163.306Z" fill="#455A64"/>
<path d="M152.587 138.465C150.75 138.021 148.872 137.74 147.017 137.386C145.163 137.032 143.296 136.684 141.436 136.342C137.714 135.65 133.985 134.989 130.248 134.357C122.806 133.11 115.328 132.066 107.808 131.358C103.565 130.951 99.3157 130.687 95.0605 130.375C94.9705 130.375 94.9765 130.507 95.0605 130.513C102.629 130.855 110.191 131.88 117.687 132.954C125.183 134.027 132.523 135.191 139.893 136.438C141.982 136.79 144.07 137.148 146.159 137.512C148.277 137.877 150.396 138.327 152.527 138.597C152.635 138.597 152.671 138.483 152.587 138.465Z" fill="#455A64"/>
<path d="M173.737 268.995C171.936 268.815 127.368 248.797 126.149 246.956C125.681 246.266 128.22 239.603 131.551 231.645C132.259 229.929 133.009 228.16 133.777 226.367C138.741 214.714 144.286 202.468 144.286 202.468L174.145 215.776L162.814 239.303L160.329 244.473C160.329 244.473 173.965 259.766 175.087 261.925C176.209 264.084 175.531 269.175 173.737 268.995Z" fill="#AD6359"/>
<path d="M173.737 268.995C171.936 268.816 127.368 248.797 126.149 246.956C125.585 246.11 129.45 236.454 133.747 226.367L162.784 239.303L160.299 244.473C160.299 244.473 173.935 259.766 175.057 261.925C176.179 264.084 175.531 269.175 173.737 268.995Z" fill="white"/>
<path d="M173.737 268.995C171.936 268.816 127.368 248.797 126.149 246.956C125.681 246.266 128.22 239.603 131.551 231.645L160.329 244.473C160.329 244.473 173.965 259.766 175.087 261.925C176.209 264.084 175.531 269.175 173.737 268.995Z" fill="#38A926"/>
<path d="M173.911 266.926C166.523 263.388 136.376 249.804 128.802 246.871C128.742 246.871 128.724 246.871 128.802 246.913C136.052 250.584 166.3 263.922 173.875 267.052C174.007 267.112 174.055 267.004 173.911 266.926Z" fill="#263238"/>
<path d="M172.908 259.034C172.086 258.64 171.191 258.421 170.28 258.39C169.369 258.359 168.462 258.517 167.615 258.854C166.088 259.448 164.849 260.605 164.152 262.087C164.152 262.135 164.218 262.171 164.242 262.129C165.162 260.764 166.5 259.735 168.054 259.194C169.609 258.654 171.298 258.631 172.866 259.13C172.878 259.132 172.89 259.13 172.901 259.124C172.912 259.118 172.92 259.109 172.925 259.098C172.93 259.087 172.931 259.075 172.928 259.063C172.925 259.052 172.918 259.041 172.908 259.034Z" fill="#263238"/>
<path d="M162.862 246.518C159.891 245.132 155.948 244.629 152.989 246.242C152.875 246.302 152.989 246.464 153.079 246.458C156.309 246.263 159.55 246.413 162.748 246.907C162.798 246.917 162.85 246.908 162.893 246.882C162.937 246.855 162.969 246.813 162.983 246.765C162.997 246.716 162.993 246.663 162.97 246.618C162.948 246.572 162.909 246.536 162.862 246.518Z" fill="#263238"/>
<path d="M164.77 248.455C161.769 247.069 157.856 246.566 154.897 248.179C154.783 248.239 154.897 248.401 154.981 248.395C158.213 248.2 161.456 248.35 164.656 248.845C164.706 248.854 164.758 248.845 164.801 248.819C164.845 248.792 164.877 248.751 164.891 248.702C164.906 248.653 164.901 248.6 164.879 248.555C164.856 248.509 164.818 248.473 164.77 248.455Z" fill="#263238"/>
<path d="M166.673 250.392C163.702 249.007 159.759 248.503 156.8 250.11C156.686 250.176 156.8 250.338 156.884 250.332C160.116 250.137 163.359 250.288 166.559 250.782C166.609 250.792 166.661 250.782 166.704 250.756C166.748 250.729 166.78 250.688 166.794 250.639C166.808 250.59 166.804 250.538 166.781 250.492C166.759 250.446 166.72 250.411 166.673 250.392Z" fill="#263238"/>
<path d="M168.575 252.329C165.604 250.944 161.661 250.44 158.702 252.047C158.588 252.113 158.702 252.275 158.792 252.269C162.022 252.074 165.264 252.225 168.461 252.719C168.511 252.729 168.563 252.719 168.606 252.693C168.65 252.667 168.682 252.625 168.696 252.576C168.711 252.527 168.706 252.475 168.684 252.429C168.661 252.383 168.623 252.348 168.575 252.329Z" fill="#263238"/>
<path d="M133.885 240.635C130.525 239.135 128.19 244.353 131.557 245.852C134.924 247.351 137.252 242.134 133.885 240.635Z" fill="#263238"/>
<path d="M169.71 239.993C168.755 238.062 166.301 238.427 164.782 239.315C162.201 240.877 160.078 243.09 158.624 245.732C158.618 245.744 158.613 245.757 158.613 245.771C158.612 245.785 158.614 245.799 158.619 245.811C158.624 245.824 158.632 245.836 158.643 245.845C158.653 245.854 158.665 245.86 158.678 245.864C158.648 246.104 158.817 246.398 159.111 246.344C161.901 245.828 164.95 245.624 167.513 244.269C168.965 243.477 170.58 241.822 169.71 239.993ZM163.18 244.701C161.811 244.982 160.443 245.204 159.087 245.54C160.249 244.255 161.477 243.03 162.766 241.87C163.396 241.315 164.064 240.804 164.764 240.341C165.857 239.645 169.914 238.469 168.749 241.852C168.083 243.723 164.788 244.359 163.156 244.701H163.18Z" fill="#263238"/>
<path d="M150.672 243.507C153.073 245.072 156.116 245.54 158.853 246.29C159.135 246.368 159.333 246.092 159.321 245.846C159.334 245.844 159.347 245.84 159.358 245.832C159.369 245.825 159.378 245.815 159.385 245.803C159.391 245.791 159.395 245.778 159.395 245.765C159.395 245.751 159.393 245.738 159.387 245.726C158.166 242.968 156.241 240.58 153.805 238.799C152.365 237.792 149.946 237.21 148.836 239.057C147.785 240.802 149.256 242.589 150.672 243.507ZM149.628 240.994C148.758 237.522 152.701 239.045 153.733 239.831C154.391 240.351 155.013 240.916 155.594 241.522C156.778 242.787 157.895 244.112 158.943 245.492C157.622 245.042 156.272 244.707 154.933 244.293C153.343 243.843 150.108 242.907 149.628 240.994Z" fill="#263238"/>
<path d="M134.426 223.632L168.035 238.805C168.035 238.805 208.012 162.136 209.057 138.651C209.945 118.68 196.033 110.974 151.05 123.892L140.031 124.03V131.628C144.869 132.264 157.772 134.291 157.772 134.291C167.159 137.829 170.184 139.293 170.034 139.599C146.591 186.869 134.426 223.632 134.426 223.632Z" fill="#263238"/>
<path d="M175.507 131.19C174.151 132.99 172.896 134.873 171.696 136.792C164.494 133.583 156.626 131.73 148.812 130.765C146.603 130.497 144.384 130.297 142.156 130.165C142.066 130.165 142.072 130.303 142.156 130.309C150.063 130.862 157.878 132.348 165.436 134.735C167.531 135.383 169.577 136.126 171.642 136.864C170.202 139.167 168.839 141.53 167.537 143.905C165.102 148.348 162.91 152.921 160.971 157.602C159.891 160.193 158.84 162.802 157.91 165.453C157.91 165.531 158.012 165.579 158.042 165.507C162.147 156.363 166.627 147.415 171.48 138.663C172.848 136.192 174.277 133.757 175.615 131.268C175.663 131.202 175.555 131.094 175.507 131.19Z" fill="#455A64"/>
<path d="M168.743 230.691C166.781 229.929 164.884 228.976 162.97 228.112L157.202 225.527C153.361 223.812 140.085 218.331 138.987 218.055C138.915 218.055 138.879 218.145 138.933 218.181C139.785 218.738 148.35 222.547 150.288 223.374C154.165 225.035 158.09 226.571 161.985 228.172C163.102 228.622 164.224 229.048 165.346 229.485C166.469 229.923 167.603 230.325 168.701 230.823C168.767 230.829 168.809 230.715 168.743 230.691Z" fill="#455A64"/>
<path d="M175.339 134.651C172.692 139.683 170.436 144.948 168.137 150.148C165.838 155.348 163.618 160.529 161.451 165.741C157.142 176.16 153.129 186.695 149.412 197.346C147.299 203.344 145.325 209.437 143.41 215.518C143.38 215.608 143.518 215.638 143.548 215.554C147.107 204.795 150.96 194.132 154.981 183.541C159.002 172.949 163.264 162.502 167.777 152.133C169.045 149.222 170.332 146.322 171.636 143.431C172.944 140.534 174.307 137.656 175.531 134.729C175.567 134.633 175.405 134.531 175.339 134.651Z" fill="#455A64"/>
<path d="M118.743 123.412C119.481 124.192 166.157 125.259 166.397 124.965C167.033 124.162 160.995 94.5594 156.128 83.2426C149.904 68.7233 146.357 67.4338 144.262 66.5702C141.586 65.4667 136.712 65.7246 135.536 66.2164C134.198 66.7622 128.406 73.2572 126.665 78.5048C123.179 89.0539 118.095 122.729 118.743 123.412Z" fill="#455A64"/>
<path d="M148.067 69.155H132.433C132.721 68.8191 133.033 68.5012 133.273 68.2134H147.077C147.383 68.4773 147.713 68.7891 148.067 69.155ZM150.036 71.6138H130.483L129.816 72.5494H150.666C150.45 72.2215 150.24 71.9097 150.036 71.6138ZM152.143 75.0083H128.298C128.118 75.3201 127.95 75.608 127.788 75.9438H152.677L152.143 75.0083ZM153.913 78.4087H126.701L126.665 78.5047C126.575 78.7685 126.491 79.0504 126.401 79.3443H154.363C154.213 79.0204 154.063 78.7146 153.913 78.4087ZM155.498 81.8032H125.711C125.633 82.103 125.549 82.4029 125.471 82.7387H155.906L155.498 81.8032ZM156.914 85.1976H124.877C124.811 85.5095 124.739 85.7973 124.667 86.1392H157.262C157.148 85.8153 157.028 85.5155 156.914 85.1976ZM158.114 88.598H124.145C124.073 88.9099 124.007 89.2218 123.947 89.5336H158.42L158.114 88.598ZM159.177 91.9925H123.443C123.383 92.3043 123.317 92.5922 123.256 92.9281H159.453C159.357 92.6102 159.267 92.2983 159.171 91.9925H159.177ZM160.155 95.3929H122.788C122.728 95.7048 122.674 95.9927 122.614 96.3285H160.425C160.323 96.0166 160.239 95.7108 160.149 95.3929H160.155ZM161.073 98.7874H122.17C122.11 99.0992 122.056 99.3871 122.002 99.7229H161.307C161.229 99.4111 161.151 99.0992 161.067 98.7874H161.073ZM161.943 102.182H121.576L121.414 103.123H162.165C162.087 102.812 162.009 102.494 161.937 102.182H161.943ZM162.766 105.582H121.006C120.958 105.894 120.904 106.182 120.856 106.518H162.976L162.766 105.582ZM163.546 108.977H120.496L120.352 109.912H163.78C163.708 109.6 163.612 109.289 163.54 108.977H163.546ZM164.296 112.371H119.95C119.902 112.689 119.86 113.007 119.812 113.313H164.488L164.296 112.371ZM165.004 115.772H119.469C119.421 116.095 119.379 116.407 119.343 116.707H165.178C165.124 116.401 165.058 116.101 164.998 115.772H165.004ZM165.658 119.166H119.025C118.989 119.496 118.953 119.814 118.923 120.108H165.82C165.766 119.808 165.712 119.49 165.652 119.166H165.658ZM166.259 122.566H118.695C118.651 122.848 118.665 123.136 118.737 123.412C118.824 123.462 118.92 123.492 119.019 123.502H166.349C166.319 123.226 166.277 122.914 166.229 122.566H166.259Z" fill="#263238"/>
<path d="M151.998 70.5223C172.128 85.6354 189.533 106.614 187.865 113.259C186.094 120.282 172.182 128.138 159.891 129.739C157.376 130.069 149.592 111.627 152.167 110.782C154.177 110.122 163.312 107.525 164.404 106.278C165.16 105.408 150.99 85.4855 146.399 75.0922C141.55 64.1712 146.609 66.4502 151.998 70.5223Z" fill="#AD6359"/>
<path d="M157.358 110.2C157.358 110.2 149.676 110.968 144.677 111.711C141.886 112.125 137.168 113.259 135.26 114.5C132.403 116.353 121.636 125.937 123.905 128.594C125.957 130.993 129.06 127.19 129.06 127.19C129.06 127.19 125.279 131.035 128.052 132.798C130.825 134.561 134.402 129.199 134.402 129.199C134.402 129.199 130.104 133.002 133.243 134.597C135.968 135.982 140.733 130.261 140.733 130.261C140.733 130.261 135.782 133.763 138.435 135.455C141.364 137.326 149.586 129.649 149.586 129.649C156.158 130.381 160.209 129.931 164.842 128.636C165.688 128.42 157.358 110.2 157.358 110.2Z" fill="#AD6359"/>
<path d="M133.249 130.495C133.543 130.087 133.849 129.685 134.15 129.295C134.717 128.493 135.33 127.724 135.986 126.992C136.64 126.291 137.324 125.619 138.027 124.965C138.729 124.312 139.593 123.664 140.313 122.956C140.318 122.948 140.325 122.941 140.332 122.936C140.34 122.931 140.349 122.928 140.359 122.927C140.368 122.926 140.377 122.927 140.386 122.93C140.395 122.933 140.403 122.939 140.409 122.945C140.416 122.952 140.42 122.961 140.423 122.97C140.426 122.979 140.426 122.988 140.424 122.997C140.423 123.007 140.419 123.015 140.413 123.023C140.407 123.03 140.4 123.036 140.391 123.04C139.666 123.73 138.981 124.461 138.339 125.229C137.685 125.961 137.042 126.699 136.394 127.436C135.746 128.174 135.092 128.834 134.438 129.535C134.114 129.889 133.837 130.255 133.495 130.615C133.224 130.981 132.923 131.324 132.595 131.64C132.587 131.644 132.578 131.645 132.569 131.644C132.561 131.643 132.553 131.639 132.546 131.633C132.539 131.628 132.534 131.621 132.531 131.612C132.528 131.604 132.527 131.595 132.529 131.586C132.729 131.198 132.971 130.832 133.249 130.495Z" fill="#263238"/>
<path d="M128.298 128.006C129.303 126.483 130.412 125.03 131.617 123.658C132.841 122.295 134.198 121.057 135.668 119.964C135.722 119.928 135.788 120 135.746 120.048C134.546 121.415 133.279 122.758 132.037 124.108C131.437 124.768 128.766 127.844 128.436 128.132C128.358 128.204 128.25 128.096 128.298 128.006Z" fill="#263238"/>
<path d="M137.847 132.972C138.82 131.557 139.887 130.209 141.04 128.936C142.333 127.757 143.711 126.674 145.163 125.697C145.217 125.697 145.289 125.733 145.241 125.781C143.95 126.98 142.648 128.132 141.424 129.379C140.823 129.979 138.579 132.558 137.955 133.092C137.901 133.116 137.811 133.038 137.847 132.972Z" fill="#263238"/>
<path d="M174.379 89.1137L159.051 99.0452C159.051 99.0452 147.677 81.4493 144.731 73.1131C141.784 64.7769 145.217 64.7589 153.265 70.7981C161.313 76.8374 174.379 89.1137 174.379 89.1137Z" fill="#455A64"/>
<path d="M150.936 69.155H143.734C143.702 68.8419 143.702 68.5264 143.734 68.2134H149.502C149.904 68.4893 150.42 68.8071 150.936 69.155ZM154.309 71.6138H144.238C144.322 71.9137 144.418 72.2136 144.532 72.5494H155.503L154.309 71.6138ZM158.51 75.0083H145.469C145.595 75.3081 145.733 75.608 145.877 75.9438H159.62C159.248 75.626 158.906 75.3201 158.504 75.0083H158.51ZM162.501 78.4087H147.047L147.515 79.3443H163.57L162.501 78.4087ZM166.36 81.8032H148.793C148.961 82.109 149.13 82.4029 149.304 82.7387H167.393L166.36 81.8032ZM170.123 85.1976H150.666L151.2 86.1392H171.144L170.123 85.1976ZM173.814 88.598H152.629C152.815 88.9159 152.995 89.2278 153.181 89.5336H173.76L174.361 89.1318L173.814 88.598ZM154.657 91.9925L155.221 92.9281H168.509L169.949 91.9925H154.657ZM156.74 95.3929L157.34 96.3285H163.294L164.74 95.3929H156.74ZM158.882 98.7874L159.056 99.0632L159.482 98.7874H158.882Z" fill="#263238"/>
<path d="M170.91 86.9368C165.064 91.5847 159.29 94.7332 158.144 95.5429C158.09 95.5788 158.042 95.4889 158.096 95.4529C159.26 94.7452 165.508 90.1513 170.85 86.8408C170.91 86.7989 170.952 86.8948 170.91 86.9368Z" fill="#263238"/>
<path d="M160.035 98.3856C159.714 98.5242 159.403 98.6845 159.105 98.8654C157.4 95.9267 155.564 92.9521 153.829 90.0254L151.284 85.7314C150.408 84.2381 149.604 82.6788 148.644 81.2394C148.641 81.2351 148.638 81.2313 148.634 81.2282C148.63 81.2251 148.626 81.2228 148.621 81.2214C148.616 81.22 148.611 81.2195 148.607 81.2201C148.602 81.2206 148.597 81.2221 148.593 81.2244C148.588 81.2268 148.584 81.23 148.581 81.2338C148.578 81.2377 148.576 81.2421 148.575 81.2468C148.573 81.2516 148.573 81.2565 148.573 81.2614C148.574 81.2663 148.575 81.2711 148.578 81.2754C149.203 82.6973 149.9 84.0865 150.666 85.4375C150.51 85.2336 150.36 85.0177 150.192 84.8378C149.814 84.388 149.442 83.9382 149.106 83.4584C149.052 83.3865 148.926 83.4584 148.98 83.5304C149.304 83.9862 149.58 84.4599 149.886 84.9397C150.192 85.4195 150.486 85.8753 150.816 86.3371C151.146 86.7989 151.47 87.2007 151.812 87.6145C151.849 87.669 151.889 87.7211 151.933 87.7704C152.401 88.628 152.857 89.4857 153.343 90.3313C155.047 93.2879 158.918 99.2432 158.972 99.2252C159.363 99.011 159.734 98.7642 160.083 98.4875C160.107 98.4336 160.107 98.3736 160.035 98.3856Z" fill="#263238"/>
<path d="M126.779 69.9226C110.443 78.4028 95.1025 88.718 92.2217 95.8847C90.4212 100.395 92.6478 108.569 94.4663 113.481C95.3546 115.88 117.951 106.56 116.072 104.575C111.427 99.669 110.671 97.7019 111.181 96.7064C111.499 96.0707 129.378 80.5618 134.395 73.569C141.393 63.8294 133.927 66.2103 126.779 69.9226Z" fill="#AD6359"/>
<path d="M124.613 126.722C122.476 127.922 119.968 122.41 119.968 122.41C119.889 123.463 119.443 124.454 118.707 125.211C117.351 126.483 114.764 124.911 114.764 124.911C114.452 125.984 113.825 126.939 112.964 127.652C111.541 128.738 108.702 127.532 108.702 127.532C107.872 128.36 106.77 128.861 105.6 128.941C102.467 129.037 99.8079 125.061 98.0854 122.554C96.363 120.048 93.8483 111.31 93.2001 109.696L109.231 98.5354C109.231 98.5354 120.142 107.603 121.744 110.842C123.088 113.571 127.872 124.893 124.613 126.722Z" fill="#AD6359"/>
<path d="M120.004 122.333C119.295 119.1 117.753 116.029 116.295 113.103C116.259 113.037 116.157 113.103 116.193 113.151C117.711 116.059 118.485 119.442 119.89 122.398C119.901 122.405 119.914 122.408 119.927 122.407C119.94 122.407 119.953 122.403 119.965 122.397C119.976 122.39 119.986 122.381 119.992 122.37C119.999 122.358 120.003 122.346 120.004 122.333Z" fill="#263238"/>
<path d="M114.938 124.713C114.697 123.994 114.365 123.309 113.948 122.674C113.546 121.979 113.137 121.289 112.717 120.599C111.871 119.232 110.995 117.883 110.077 116.557C110.035 116.497 109.939 116.557 109.975 116.611C110.815 117.979 111.637 119.358 112.417 120.755C112.807 121.457 113.191 122.165 113.576 122.866C113.891 123.557 114.281 124.211 114.74 124.815C114.757 124.835 114.779 124.849 114.805 124.854C114.83 124.86 114.857 124.856 114.88 124.844C114.903 124.832 114.921 124.813 114.932 124.789C114.943 124.765 114.945 124.739 114.938 124.713Z" fill="#263238"/>
<path d="M108.666 127.496C108.442 126.845 108.109 126.237 107.682 125.697C107.28 125.097 106.89 124.461 106.482 123.844C105.695 122.602 104.915 121.361 104.177 120.095C104.168 120.086 104.156 120.08 104.143 120.078C104.13 120.076 104.117 120.078 104.106 120.084C104.094 120.09 104.085 120.1 104.079 120.112C104.074 120.123 104.072 120.137 104.075 120.149C104.819 121.439 105.545 122.74 106.302 124.024C106.674 124.623 107.046 125.283 107.424 125.913C107.712 126.518 108.106 127.066 108.588 127.532C108.636 127.532 108.678 127.496 108.666 127.496Z" fill="#263238"/>
<path d="M103.181 82.6308L115.142 94.3554C115.142 94.3554 130.873 80.4358 135.428 72.8553C139.983 65.2747 136.628 64.5671 127.524 68.8851C118.419 73.2031 103.181 82.6308 103.181 82.6308Z" fill="#38A926"/>
<path d="M103.181 82.6308L115.142 94.3554C115.142 94.3554 130.873 80.4358 135.428 72.8553C139.983 65.2747 136.628 64.5671 127.524 68.8851C118.419 73.2031 103.181 82.6308 103.181 82.6308Z" fill="#455A64"/>
<path d="M137.42 68.2134C137.381 68.5333 137.311 68.8486 137.21 69.155H126.966L127.524 68.8851C128.028 68.6452 128.514 68.4233 128.982 68.2134H137.42ZM122.17 71.6138L120.442 72.5494H135.608C135.8 72.2255 135.98 71.9077 136.142 71.6138H122.17ZM116.049 75.0083L114.41 75.9199H133.261C133.507 75.602 133.741 75.3201 133.97 74.9843L116.049 75.0083ZM110.185 78.4087L108.618 79.3443H130.399C130.675 79.0324 130.951 78.7446 131.215 78.4087H110.185ZM104.531 81.8032L103.181 82.6308L103.289 82.7387H127.248L128.136 81.8032H104.531ZM105.798 85.1976L106.758 86.1392H123.893L124.835 85.1976H105.798ZM109.267 88.598L110.221 89.5336H120.376L121.366 88.598H109.267ZM112.73 91.9925L113.684 92.9281H116.727L117.747 91.9925H112.73Z" fill="#263238"/>
<path d="M117.627 91.2909C112.105 86.601 108.024 81.7253 107.076 80.7897C107.034 80.7417 107.112 80.6757 107.154 80.7237C108.042 81.6953 113.582 86.7749 117.717 91.2189C117.765 91.2729 117.681 91.3389 117.627 91.2909Z" fill="#263238"/>
<path d="M128.208 75.7039C127.608 76.9873 127.007 78.2647 126.497 79.5841C126.497 79.4942 126.497 79.4102 126.497 79.3203C126.562 78.5129 126.684 77.7112 126.863 76.9214C126.863 76.8314 126.749 76.7894 126.725 76.8794C126.545 77.677 126.383 78.4866 126.257 79.2783C126.191 79.6681 126.155 80.0579 126.125 80.4477C126.128 80.4957 126.128 80.5437 126.125 80.5917C126.122 80.6075 126.122 80.6238 126.125 80.6397C125.525 82.3968 125.177 84.196 124.679 85.9712C124.676 85.9799 124.676 85.9889 124.677 85.9978C124.678 86.0067 124.681 86.0153 124.685 86.0231C124.69 86.0309 124.696 86.0378 124.703 86.0433C124.71 86.0488 124.718 86.0528 124.727 86.0552C124.735 86.0575 124.745 86.0582 124.753 86.057C124.762 86.0559 124.771 86.053 124.779 86.0486C124.787 86.0441 124.793 86.0382 124.799 86.0311C124.804 86.024 124.808 86.0159 124.811 86.0072C125.303 84.268 126.011 82.5828 126.611 80.8855C127.212 79.1883 127.728 77.4551 128.316 75.7459C128.334 75.6919 128.232 75.6439 128.208 75.7039Z" fill="#263238"/>
<path d="M136.622 74.3064C139.251 75.0261 143.95 71.1519 145.865 67.9373C145.997 67.7154 145.739 65.3345 145.565 62.4259C145.463 60.6267 145.391 58.6896 145.457 56.8904C145.457 56.5186 134.054 59.2173 134.054 59.2173C134.616 61.4934 134.898 63.8297 134.894 66.1741C134.878 66.4206 134.842 66.6652 134.786 66.9058C134.782 66.9477 134.782 66.9899 134.786 67.0317C134.486 68.4231 134.084 73.6047 136.622 74.3064Z" fill="#AD6359"/>
<path d="M144.761 56.9087C144.124 59.9073 141.958 67.224 135.92 67.104C135.534 67.1061 135.148 67.0719 134.768 67.0021C134.764 66.9602 134.764 66.918 134.768 66.8761C134.823 66.6356 134.86 66.3909 134.876 66.1445C134.88 63.798 134.598 61.4599 134.036 59.1816C134.036 59.1816 142.294 57.2685 144.761 56.9087Z" fill="#263238"/>
<path d="M133.363 50.5814C133.417 53.3461 131.491 55.6311 129.06 55.6731C126.629 55.715 124.619 53.52 124.565 50.7493C124.511 47.9786 126.437 45.6996 128.868 45.6516C131.299 45.6037 133.309 47.8107 133.363 50.5814Z" fill="#38A926"/>
<path d="M130.002 56.407C132.706 56.3551 134.85 53.8164 134.791 50.7367C134.732 47.6569 132.492 45.2023 129.787 45.2542C127.083 45.3061 124.939 47.8448 124.998 50.9246C125.057 54.0043 127.297 56.4589 130.002 56.407Z" fill="#C7C7C7"/>
<path d="M144.874 41.9333C146.741 45.6876 146.561 57.4542 144.172 60.4708C140.709 64.8428 134.089 66.3061 130.128 61.9341C126.293 57.6881 126.803 42.3591 129.564 39.5224C133.621 35.3423 142.102 36.3918 144.874 41.9333Z" fill="#AD6359"/>
<path d="M135.596 52.1588C135.596 52.1588 135.656 52.1948 135.656 52.2308C135.62 53.0224 135.716 53.934 136.43 54.2039V54.2519C135.554 54.1199 135.44 52.9025 135.596 52.1588Z" fill="#263238"/>
<path d="M136.316 51.331C137.588 51.247 137.66 53.8079 136.478 53.8858C135.296 53.9638 135.242 51.409 136.316 51.331Z" fill="#263238"/>
<path d="M131.161 52.3086C131.161 52.3086 131.095 52.3506 131.101 52.3806C131.149 53.1722 131.065 54.0838 130.357 54.3717C130.357 54.3717 130.357 54.4196 130.357 54.4136C131.239 54.2637 131.329 53.0523 131.161 52.3086Z" fill="#263238"/>
<path d="M130.428 51.4991C129.15 51.4391 129.12 53.9999 130.302 54.0539C131.485 54.1079 131.497 51.5531 130.428 51.4991Z" fill="#263238"/>
<path d="M137.439 49.2801C137.088 49.2552 136.739 49.2091 136.394 49.1421C136.019 49.1426 135.655 49.0204 135.356 48.7943C135.276 48.7062 135.228 48.5941 135.22 48.4757C135.211 48.3573 135.242 48.2394 135.308 48.1406C135.468 47.9626 135.672 47.8304 135.9 47.7577C136.128 47.6849 136.371 47.6743 136.604 47.7268C137.095 47.7572 137.555 47.9714 137.895 48.3265C137.959 48.414 137.998 48.5172 138.008 48.6252C138.018 48.7331 137.999 48.8418 137.952 48.9396C137.905 49.0375 137.833 49.1208 137.742 49.1808C137.652 49.2407 137.547 49.275 137.439 49.2801Z" fill="#263238"/>
<path d="M129.198 49.6699C129.552 49.5979 129.864 49.478 130.206 49.376C130.576 49.3207 130.918 49.1459 131.179 48.8782C131.245 48.7785 131.276 48.6596 131.268 48.5402C131.259 48.4208 131.211 48.3076 131.131 48.2185C130.946 48.0661 130.724 47.9661 130.487 47.9292C130.251 47.8922 130.009 47.9197 129.786 48.0086C129.301 48.1097 128.873 48.3904 128.586 48.7943C128.534 48.8918 128.51 49.0018 128.517 49.1121C128.524 49.2224 128.561 49.3287 128.624 49.4193C128.687 49.5099 128.774 49.5812 128.876 49.6254C128.977 49.6696 129.089 49.685 129.198 49.6699Z" fill="#263238"/>
<path d="M137.132 59.4873C136.946 59.6732 136.76 59.9371 136.478 59.9671C136.183 59.9696 135.891 59.9104 135.62 59.7932C135.62 59.7932 135.566 59.7932 135.584 59.8351C135.702 59.9875 135.859 60.1052 136.039 60.1759C136.218 60.2466 136.414 60.2677 136.604 60.237C136.764 60.1895 136.906 60.0958 137.013 59.9678C137.12 59.8397 137.186 59.683 137.204 59.5173C137.216 59.4693 137.156 59.4573 137.132 59.4873Z" fill="#263238"/>
<path d="M133.844 58.1379C134.19 58.5646 134.641 58.8951 135.152 59.0975C135.437 59.188 135.743 59.188 136.028 59.0975C136.658 58.9116 136.658 58.3298 136.526 57.8381C136.453 57.5754 136.351 57.3219 136.22 57.0824C135.562 57.6805 134.729 58.0507 133.844 58.1379Z" fill="#263238"/>
<path d="M135.152 59.1277C135.437 59.2182 135.743 59.2182 136.028 59.1277C136.658 58.9418 136.658 58.3601 136.526 57.8683C136.188 57.8914 135.868 58.0287 135.618 58.2575C135.369 58.4863 135.204 58.7932 135.152 59.1277Z" fill="#FF98B9"/>
<path opacity="0.2" d="M146.129 50.2816C145.361 50.1376 143.584 47.4809 142.822 46.4253C142.06 45.3698 141.76 39.7924 141.718 38.533C143.07 39.3457 144.165 40.5247 144.875 41.9334C145.703 43.6126 146.129 46.8931 146.129 50.2816Z" fill="#263238"/>
<path d="M132.025 42.869C132.47 43.3826 133.038 43.7744 133.677 44.0074C134.315 44.2404 135.003 44.3068 135.674 44.2003C136.361 44.0903 137.008 43.8059 137.553 43.3743C138.099 42.9427 138.524 42.3784 138.789 41.7355C138.789 41.6995 138.861 41.7355 138.849 41.7355C138.628 42.4329 138.22 43.0568 137.67 43.5398C137.12 44.0228 136.449 44.3466 135.728 44.4762C135.014 44.5666 134.289 44.4679 133.625 44.19C132.962 43.9121 132.383 43.4648 131.947 42.8929C131.899 42.881 131.983 42.821 132.025 42.869Z" fill="#263238"/>
<path d="M136.1 33.0095C138.411 33.0515 140.535 34.3169 141.394 35.8822C141.867 36.7734 142.026 37.7983 141.844 38.7908C141.844 38.8328 141.754 38.8268 141.76 38.7908C141.802 37.9121 141.606 37.0384 141.195 36.2609C140.783 35.4834 140.17 34.8306 139.419 34.3709C138.598 33.8373 137.665 33.5016 136.692 33.3902C135.719 33.2788 134.734 33.3949 133.814 33.7291C132.917 34.0399 132.159 34.6555 131.671 35.4683C131.629 35.5523 131.455 35.4683 131.491 35.4084C132.103 33.939 134 32.9795 136.1 33.0095Z" fill="#263238"/>
<path d="M122.704 38.0951C123.073 36.9513 123.837 35.9757 124.859 35.3424C126.269 34.4608 127.86 34.5808 129.462 34.7427C129.51 34.7427 129.504 34.8146 129.462 34.8086C128.106 34.6827 126.726 34.6347 125.483 35.2824C124.454 35.8057 123.639 36.6709 123.179 37.7293C122.737 38.8159 122.702 40.0252 123.08 41.1355C123.458 42.2459 124.224 43.1828 125.237 43.7745C125.829 44.1012 126.482 44.3032 127.155 44.3682C127.828 44.4331 128.507 44.3597 129.15 44.1524C129.198 44.1524 129.234 44.2063 129.186 44.2303C128.316 44.5495 127.374 44.6197 126.467 44.4332C125.559 44.2467 124.721 43.8109 124.048 43.1747C123.374 42.5385 122.892 41.7271 122.654 40.8319C122.417 39.9367 122.434 38.9931 122.704 38.1071V38.0951Z" fill="#263238"/>
<path d="M145.655 44.2244C145.655 44.2244 147.803 40.0743 145.949 37.6994C144.893 36.356 141.448 36.5719 141.448 36.5719C140.513 35.211 139.075 34.2769 137.451 33.9751C134.558 33.3754 131.143 35.0666 131.143 35.0666C131.143 35.0666 128.388 33.5253 125.837 35.0186C122.278 37.0997 122.782 42.5452 126.401 44.2604C128.946 45.4599 132.361 43.1869 132.361 43.1869C132.691 43.2289 136.094 45.232 138.621 42.1914C138.621 42.1914 140.715 43.9905 142.57 42.7011C142.866 43.2405 143.32 43.676 143.872 43.9485C144.424 44.221 145.046 44.3173 145.655 44.2244Z" fill="#263238"/>
<path d="M143.986 51.649C143.986 51.649 146.033 47.5648 147.852 48.2425C149.67 48.9202 148.506 54.5756 146.651 55.6011C146.421 55.7493 146.163 55.8494 145.893 55.8952C145.623 55.9411 145.346 55.9318 145.08 55.8679C144.813 55.804 144.563 55.6868 144.343 55.5235C144.123 55.3601 143.938 55.154 143.8 54.9175L143.986 51.649Z" fill="#AD6359"/>
<path d="M147.503 49.8558C147.533 49.8558 147.545 49.8918 147.503 49.9098C146.201 50.6715 145.661 52.0628 145.343 53.4662C145.403 53.3161 145.495 53.1808 145.613 53.0697C145.731 52.9585 145.871 52.8741 146.024 52.8223C146.178 52.7704 146.34 52.7524 146.501 52.7693C146.662 52.7862 146.818 52.8378 146.957 52.9204C146.999 52.9204 146.957 53.0044 146.957 52.9984C146.706 52.9538 146.446 52.9874 146.215 53.0946C145.983 53.2019 145.789 53.3776 145.661 53.5981C145.453 53.9786 145.288 54.3809 145.169 54.7976C145.121 54.9355 144.887 54.8995 144.917 54.7496C144.598 52.9804 145.607 50.3116 147.503 49.8558Z" fill="#263238"/>
<path d="M139.527 59.8352L143.26 58.3418L146.327 54.7255L145.769 54.2517L142.822 57.7301L139.257 59.1575L139.527 59.8352Z" fill="#C7C7C7"/>
<path d="M139.935 59.2594C139.605 58.1739 136.58 58.4918 137.084 60.135C137.589 61.7783 140.301 60.3269 139.935 59.2594Z" fill="#37474F"/>
<path d="M147.912 48.1346C147.912 48.1346 148.47 42.1014 146.789 38.7249C144.911 34.9646 136.832 31.2223 131.143 35.0666C131.143 35.0666 140.289 33.6752 144.389 38.9288C146.117 41.1418 145.889 48.2426 145.889 48.2426L147.912 48.1346Z" fill="#C7C7C7"/>
<path d="M151.963 51.393C152.074 48.3146 149.973 45.7404 147.27 45.6432C144.567 45.5461 142.286 47.9628 142.175 51.0411C142.064 54.1195 144.166 56.6937 146.869 56.7909C149.572 56.8881 151.853 54.4713 151.963 51.393Z" fill="#C7C7C7"/>
<path d="M143.602 50.9172C143.5 53.6819 145.403 55.9969 147.803 56.0808C150.204 56.1648 152.287 53.9998 152.383 51.2351C152.479 48.4703 150.582 46.1554 148.181 46.0654C145.781 45.9755 143.698 48.1525 143.602 50.9172Z" fill="#38A926"/>
<path d="M147.233 68.7711C146 70.305 144.682 71.7686 143.284 73.1551C141.934 74.4145 140.283 75.554 138.483 75.7339C136.682 75.9138 134.882 75.566 134.216 73.383C133.676 71.6498 133.748 69.8626 134.036 67.6316C134.036 67.6141 134.029 67.5974 134.016 67.585C134.004 67.5726 133.987 67.5657 133.97 67.5657C133.952 67.5657 133.935 67.5726 133.923 67.585C133.911 67.5974 133.904 67.6141 133.904 67.6316C133.52 70.4983 133.135 74.9423 135.746 75.9078C138.675 76.9933 141.52 75.4641 143.548 73.437C144.963 72.0438 146.223 70.5015 147.305 68.8371C147.305 68.7831 147.257 68.7231 147.233 68.7711Z" fill="#263238"/>
<path d="M162.273 134.429H108.9V136.822H162.273V134.429Z" fill="#C7C7C7"/>
<path d="M150.846 134.429L152.677 136.822H108.9V134.429H150.846Z" fill="#A6A6A6"/>
<path d="M148.357 136.866H96.3403L92.0131 101.566H144.03L148.357 136.866Z" fill="#C7C7C7"/>
<path d="M123.562 119.172C123.57 119.585 123.496 119.996 123.343 120.38C123.189 120.764 122.961 121.113 122.671 121.408C122.381 121.702 122.034 121.936 121.653 122.095C121.271 122.253 120.861 122.334 120.448 122.333C119.605 122.33 118.796 121.997 118.195 121.407C117.594 120.816 117.248 120.014 117.231 119.172C117.22 118.758 117.293 118.347 117.445 117.962C117.597 117.577 117.824 117.226 118.114 116.931C118.404 116.636 118.751 116.402 119.133 116.243C119.515 116.084 119.925 116.003 120.339 116.006C121.184 116.01 121.993 116.343 122.594 116.935C123.196 117.526 123.544 118.329 123.562 119.172Z" fill="white"/>
<path d="M268.275 141.488H212.627V148.613H268.275V141.488Z" fill="#455A64"/>
<path d="M266.703 148.613H214.194V150.838H266.703V148.613Z" fill="#37474F"/>
<path d="M259.207 202.786H221.696V205.011H259.207V202.786Z" fill="#455A64"/>
<path d="M220.478 235.495H217.699V150.838H225.279L220.478 235.495Z" fill="#455A64"/>
<path d="M225.279 150.838L224.997 155.845H217.699V150.838H225.279Z" fill="#263238"/>
<path d="M260.419 235.495H263.204V150.838H255.618L260.419 235.495Z" fill="#455A64"/>
<path d="M255.618 150.838L255.906 155.845H263.198V150.838H255.618Z" fill="#263238"/>
<path d="M257.082 123.724H214.194V131.029H257.082V123.724Z" fill="#455A64"/>
<path d="M253.733 123.724H249.736V131.029H253.733V123.724Z" fill="#EBEBEB"/>
<path d="M221.54 123.724H217.543V131.029H221.54V123.724Z" fill="#EBEBEB"/>
<path d="M263.438 131.029H216.373V141.494H263.438V131.029Z" fill="#263238"/>
<path d="M241.633 140.402H263.426V132.108H241.633V140.402Z" fill="white"/>
<path d="M263.432 133.817C260.503 133.757 252.533 133.655 252.533 133.655L250.42 133.691C247.491 133.715 244.564 133.757 241.64 133.817C244.568 133.877 247.495 133.917 250.42 133.937L252.533 133.973C252.533 133.973 260.503 133.871 263.432 133.817Z" fill="#DBDBDB"/>
<path d="M263.432 135.443C260.503 135.383 252.533 135.281 252.533 135.281L250.42 135.317C247.491 135.341 244.564 135.383 241.64 135.443C244.568 135.503 247.495 135.543 250.42 135.563L252.533 135.604C252.533 135.604 260.503 135.503 263.432 135.443Z" fill="#DBDBDB"/>
<path d="M263.432 137.092C260.503 137.032 252.533 136.936 252.533 136.936L250.42 136.972C247.491 136.972 244.564 137.012 241.64 137.092C244.568 137.152 247.495 137.194 250.42 137.218L252.533 137.254C252.533 137.254 260.503 137.128 263.432 137.092Z" fill="#DBDBDB"/>
<path d="M263.432 138.699C260.503 138.639 252.533 138.537 252.533 138.537L250.42 138.573C247.491 138.597 244.564 138.639 241.64 138.699C244.568 138.751 247.495 138.791 250.42 138.819L252.533 138.855C252.533 138.855 260.503 138.753 263.432 138.699Z" fill="#DBDBDB"/>
<path d="M219.889 137.691V135.215C219.889 135.184 219.894 135.154 219.905 135.126C219.916 135.097 219.933 135.071 219.954 135.05C219.975 135.028 220.001 135.01 220.029 134.999C220.057 134.987 220.087 134.981 220.118 134.981H221.492C221.554 134.981 221.614 135.005 221.657 135.049C221.701 135.093 221.726 135.153 221.726 135.215C221.726 135.277 221.701 135.336 221.657 135.38C221.614 135.424 221.554 135.448 221.492 135.448H220.358V136.216H221.324C221.384 136.219 221.442 136.245 221.484 136.288C221.526 136.332 221.551 136.389 221.552 136.45C221.553 136.48 221.547 136.511 221.536 136.539C221.525 136.567 221.509 136.593 221.487 136.615C221.466 136.637 221.441 136.654 221.413 136.666C221.385 136.678 221.354 136.684 221.324 136.684H220.346V137.458H221.48C221.542 137.458 221.602 137.482 221.645 137.526C221.689 137.57 221.714 137.629 221.714 137.691C221.714 137.754 221.689 137.813 221.645 137.857C221.602 137.901 221.542 137.925 221.48 137.925H220.124C220.061 137.925 220.002 137.901 219.958 137.857C219.914 137.813 219.889 137.754 219.889 137.691Z" fill="#38A926"/>
<path d="M222.842 137.691C222.841 137.752 222.817 137.81 222.774 137.853C222.732 137.897 222.675 137.922 222.614 137.925C222.553 137.924 222.495 137.899 222.453 137.855C222.41 137.811 222.386 137.753 222.386 137.691V135.251C222.385 135.213 222.392 135.175 222.408 135.141C222.423 135.107 222.447 135.076 222.476 135.053C222.501 135.035 222.528 135.023 222.558 135.016C222.587 135.01 222.617 135.009 222.646 135.014C222.676 135.019 222.704 135.03 222.73 135.046C222.755 135.061 222.777 135.082 222.794 135.107L224.157 136.984V135.251C224.157 135.191 224.18 135.134 224.221 135.092C224.263 135.049 224.319 135.024 224.379 135.023C224.439 135.024 224.497 135.048 224.541 135.091C224.584 135.133 224.61 135.19 224.613 135.251V137.691C224.611 137.753 224.586 137.812 224.543 137.855C224.499 137.899 224.44 137.924 224.379 137.925C224.346 137.924 224.315 137.916 224.286 137.901C224.257 137.887 224.231 137.867 224.211 137.841L222.866 135.976L222.842 137.691Z" fill="#38A926"/>
<path d="M225.279 136.402C225.281 136.201 225.322 136.002 225.401 135.816C225.479 135.631 225.594 135.463 225.738 135.322C225.882 135.181 226.052 135.07 226.239 134.995C226.426 134.92 226.626 134.882 226.827 134.885C227.175 134.885 227.513 135.001 227.788 135.215C227.815 135.233 227.838 135.257 227.856 135.285C227.874 135.312 227.886 135.343 227.891 135.376C227.896 135.408 227.894 135.441 227.886 135.473C227.878 135.505 227.863 135.535 227.843 135.561C227.823 135.587 227.798 135.608 227.769 135.624C227.74 135.64 227.708 135.65 227.675 135.653C227.643 135.656 227.609 135.652 227.578 135.641C227.547 135.631 227.518 135.614 227.494 135.593C227.302 135.446 227.068 135.366 226.827 135.365C226.687 135.363 226.548 135.389 226.419 135.442C226.289 135.494 226.171 135.572 226.071 135.671C225.973 135.765 225.894 135.879 225.84 136.004C225.787 136.13 225.759 136.265 225.759 136.402C225.759 136.538 225.786 136.672 225.84 136.797C225.894 136.922 225.972 137.035 226.071 137.128C226.171 137.226 226.289 137.304 226.419 137.357C226.548 137.409 226.687 137.435 226.827 137.434C227.038 137.433 227.245 137.377 227.428 137.272V136.672H226.827C226.764 136.671 226.704 136.645 226.659 136.6C226.615 136.555 226.589 136.495 226.587 136.432C226.589 136.37 226.615 136.31 226.66 136.266C226.705 136.223 226.765 136.198 226.827 136.198H227.668C227.699 136.197 227.73 136.203 227.759 136.214C227.788 136.226 227.815 136.243 227.837 136.265C227.86 136.286 227.877 136.312 227.889 136.341C227.902 136.37 227.908 136.401 227.908 136.432V137.362C227.911 137.386 227.911 137.41 227.908 137.434C227.893 137.477 227.863 137.513 227.824 137.536C227.551 137.749 227.215 137.865 226.869 137.866C226.465 137.882 226.07 137.737 225.771 137.462C225.473 137.188 225.296 136.807 225.279 136.402Z" fill="#38A926"/>
<path d="M228.616 137.691V135.215C228.616 135.153 228.641 135.093 228.685 135.049C228.728 135.005 228.788 134.981 228.85 134.981C228.912 134.981 228.972 135.005 229.016 135.049C229.059 135.093 229.084 135.153 229.084 135.215V137.458H230.224C230.286 137.458 230.346 137.482 230.39 137.526C230.434 137.57 230.458 137.629 230.458 137.691C230.458 137.754 230.434 137.813 230.39 137.857C230.346 137.901 230.286 137.925 230.224 137.925H228.85C228.788 137.925 228.728 137.901 228.685 137.857C228.641 137.813 228.616 137.754 228.616 137.691Z" fill="#38A926"/>
<path d="M231.035 135.203C231.034 135.172 231.039 135.141 231.051 135.112C231.062 135.083 231.079 135.057 231.101 135.035C231.123 135.014 231.149 134.996 231.178 134.985C231.207 134.973 231.237 134.968 231.268 134.969C231.33 134.97 231.389 134.995 231.432 135.039C231.476 135.083 231.501 135.141 231.502 135.203V137.692C231.501 137.753 231.476 137.812 231.432 137.855C231.389 137.899 231.33 137.924 231.268 137.925C231.237 137.926 231.207 137.921 231.178 137.909C231.149 137.898 231.123 137.881 231.101 137.859C231.079 137.837 231.062 137.811 231.051 137.782C231.039 137.753 231.034 137.723 231.035 137.692V135.203Z" fill="#38A926"/>
<path d="M232.193 137.182C232.211 137.16 232.233 137.141 232.258 137.128C232.284 137.114 232.311 137.106 232.34 137.103C232.368 137.1 232.397 137.103 232.424 137.111C232.452 137.12 232.477 137.133 232.499 137.152C232.725 137.344 233.007 137.458 233.303 137.476C233.491 137.478 233.675 137.423 233.831 137.32C233.884 137.288 233.928 137.245 233.959 137.192C233.99 137.14 234.008 137.081 234.011 137.02C234.014 136.97 233.999 136.921 233.969 136.882C233.939 136.83 233.895 136.787 233.843 136.756C233.657 136.653 233.454 136.586 233.243 136.558C233.057 136.529 232.875 136.475 232.703 136.396C232.543 136.327 232.407 136.212 232.313 136.066C232.247 135.965 232.214 135.845 232.217 135.724C232.221 135.606 232.253 135.49 232.311 135.385C232.368 135.281 232.449 135.192 232.547 135.125C232.761 134.974 233.017 134.894 233.279 134.897C233.612 134.912 233.931 135.032 234.192 135.239C234.215 135.254 234.235 135.273 234.251 135.297C234.267 135.32 234.278 135.346 234.283 135.373C234.289 135.4 234.289 135.429 234.284 135.456C234.278 135.483 234.267 135.509 234.252 135.533C234.236 135.557 234.216 135.578 234.193 135.594C234.17 135.61 234.143 135.622 234.115 135.628C234.087 135.634 234.059 135.635 234.03 135.63C234.002 135.625 233.975 135.614 233.951 135.598C233.778 135.437 233.561 135.331 233.327 135.293C233.158 135.29 232.992 135.34 232.853 135.437C232.807 135.464 232.769 135.503 232.742 135.549C232.715 135.595 232.699 135.647 232.697 135.7C232.694 135.741 232.704 135.781 232.727 135.814C232.755 135.86 232.791 135.898 232.835 135.928C233 136.019 233.178 136.082 233.363 136.114C233.57 136.147 233.771 136.206 233.963 136.288C234.134 136.361 234.28 136.482 234.384 136.636C234.451 136.744 234.487 136.869 234.486 136.996C234.482 137.125 234.447 137.251 234.384 137.363C234.321 137.476 234.233 137.572 234.126 137.644C233.897 137.803 233.624 137.887 233.345 137.883C232.951 137.865 232.573 137.717 232.271 137.464C232.226 137.434 232.193 137.389 232.179 137.337C232.165 137.285 232.17 137.23 232.193 137.182Z" fill="#38A926"/>
<path d="M235.092 137.692V135.215C235.091 135.184 235.096 135.154 235.107 135.126C235.118 135.097 235.135 135.071 235.156 135.05C235.178 135.028 235.203 135.011 235.231 134.999C235.259 134.987 235.289 134.981 235.32 134.981C235.351 134.98 235.381 134.985 235.41 134.997C235.439 135.008 235.465 135.026 235.487 135.047C235.509 135.069 235.526 135.095 235.538 135.124C235.549 135.153 235.555 135.184 235.554 135.215V136.222H236.646V135.215C236.645 135.184 236.651 135.154 236.662 135.126C236.673 135.097 236.689 135.071 236.711 135.05C236.732 135.028 236.757 135.011 236.785 134.999C236.814 134.987 236.844 134.981 236.874 134.981C236.905 134.98 236.936 134.985 236.965 134.997C236.993 135.008 237.02 135.026 237.041 135.047C237.063 135.069 237.081 135.095 237.092 135.124C237.104 135.153 237.109 135.184 237.108 135.215V137.692C237.109 137.722 237.104 137.753 237.092 137.782C237.081 137.811 237.063 137.837 237.041 137.859C237.02 137.881 236.993 137.898 236.965 137.909C236.936 137.921 236.905 137.926 236.874 137.925C236.844 137.925 236.814 137.919 236.785 137.908C236.757 137.896 236.732 137.878 236.711 137.857C236.689 137.835 236.673 137.809 236.662 137.781C236.651 137.752 236.645 137.722 236.646 137.692V136.672H235.554V137.692C235.555 137.722 235.549 137.753 235.538 137.782C235.526 137.811 235.509 137.837 235.487 137.859C235.465 137.881 235.439 137.898 235.41 137.909C235.381 137.921 235.351 137.926 235.32 137.925C235.289 137.925 235.259 137.919 235.231 137.908C235.203 137.896 235.178 137.878 235.156 137.857C235.135 137.835 235.118 137.809 235.107 137.781C235.096 137.752 235.091 137.722 235.092 137.692Z" fill="#38A926"/>
<path d="M262.844 118.146H220.652V123.724H262.844V118.146Z" fill="#38A926"/>
<path d="M248.956 118.728H220.646V123.148H248.956V118.728Z" fill="white"/>
<path d="M222.482 122.237C224.687 122.261 226.887 122.277 229.084 122.285H235.686H242.288C244.496 122.285 246.697 122.269 248.89 122.237C246.687 122.237 244.478 122.201 242.288 122.189H235.686H229.084C226.893 122.201 224.685 122.213 222.482 122.237Z" fill="#DBDBDB"/>
<path d="M222.482 121.373C224.685 121.373 226.893 121.409 229.084 121.415H235.686H242.288C244.496 121.415 246.705 121.415 248.89 121.373C246.685 121.349 244.484 121.333 242.288 121.325H235.686H229.084C226.887 121.333 224.687 121.349 222.482 121.373Z" fill="#DBDBDB"/>
<path d="M222.482 120.504C224.685 120.504 226.893 120.54 229.084 120.552H235.686H242.288C244.496 120.552 246.705 120.552 248.89 120.504C246.685 120.48 244.484 120.464 242.288 120.456H235.686H229.084C226.887 120.464 224.687 120.48 222.482 120.504Z" fill="#DBDBDB"/>
<path d="M222.482 119.634C224.687 119.658 226.887 119.674 229.084 119.682H235.686H242.288C244.496 119.682 246.697 119.666 248.89 119.634C246.687 119.634 244.478 119.598 242.288 119.586H235.686H229.084C226.893 119.598 224.685 119.61 222.482 119.634Z" fill="#DBDBDB"/>
<path d="M250.684 122.225V119.748C250.684 119.622 250.756 119.514 250.846 119.514H251.794C251.878 119.514 251.956 119.622 251.956 119.748C251.956 119.874 251.878 119.982 251.794 119.982H251.008V120.749H251.686C251.77 120.749 251.842 120.857 251.842 120.983C251.842 121.109 251.77 121.217 251.686 121.217H251.008V122.225C251.008 122.351 250.936 122.459 250.846 122.459C250.756 122.459 250.684 122.351 250.684 122.225Z" fill="#37474F"/>
<path d="M253.787 122.099C253.804 122.152 253.803 122.209 253.784 122.262C253.766 122.315 253.731 122.361 253.685 122.393C253.664 122.398 253.641 122.398 253.619 122.393C253.577 122.391 253.536 122.374 253.505 122.345C253.464 122.301 253.431 122.25 253.409 122.195C253.364 122.031 253.344 121.861 253.349 121.691C253.351 121.63 253.34 121.568 253.319 121.511C253.3 121.464 253.269 121.423 253.229 121.391C253.183 121.346 253.128 121.311 253.067 121.289H252.725V122.201C252.725 122.327 252.653 122.435 252.563 122.435C252.473 122.435 252.401 122.327 252.401 122.201V119.724C252.401 119.592 252.473 119.49 252.563 119.49H253.079C253.427 119.49 253.679 119.892 253.679 120.395C253.684 120.645 253.604 120.888 253.451 121.085C253.493 121.132 253.527 121.184 253.553 121.241C253.619 121.382 253.652 121.536 253.649 121.691C253.644 121.775 253.644 121.859 253.649 121.943C253.685 121.953 253.717 121.973 253.741 122C253.766 122.028 253.782 122.062 253.787 122.099ZM253.379 120.413C253.379 120.168 253.247 119.976 253.079 119.976H252.725V120.839H253.079C253.247 120.845 253.379 120.653 253.379 120.419V120.413Z" fill="#37474F"/>
<path d="M254.255 122.225V119.748C254.255 119.616 254.327 119.514 254.417 119.514H255.365C255.449 119.514 255.527 119.616 255.527 119.748C255.527 119.88 255.449 119.982 255.365 119.982H254.579V120.749H255.257C255.341 120.749 255.413 120.857 255.413 120.983C255.413 121.109 255.341 121.217 255.257 121.217H254.579V121.991H255.365C255.449 121.991 255.527 122.093 255.527 122.225C255.527 122.357 255.449 122.459 255.365 122.459H254.417C254.333 122.459 254.255 122.351 254.255 122.225Z" fill="#37474F"/>
<path d="M256.296 122.225C256.296 122.35 256.224 122.458 256.139 122.458C256.055 122.458 255.983 122.35 255.983 122.225V119.784C255.977 119.714 255.999 119.645 256.043 119.592C256.059 119.575 256.08 119.563 256.102 119.556C256.124 119.55 256.148 119.549 256.17 119.555C256.193 119.56 256.213 119.572 256.23 119.587C256.247 119.603 256.259 119.624 256.266 119.646L257.202 121.523V119.79C257.202 119.67 257.274 119.562 257.364 119.562C257.454 119.562 257.52 119.67 257.52 119.79V122.231C257.52 122.356 257.448 122.464 257.364 122.464C257.338 122.462 257.314 122.453 257.293 122.438C257.272 122.423 257.255 122.404 257.244 122.38V122.35L256.314 120.485L256.296 122.225Z" fill="#37474F"/>
<path d="M258.126 120.941C258.126 120.114 258.612 119.436 259.195 119.43C259.323 119.435 259.45 119.466 259.566 119.523C259.682 119.58 259.784 119.661 259.867 119.76C259.896 119.811 259.912 119.869 259.912 119.928C259.912 119.987 259.896 120.045 259.867 120.096C259.859 120.117 259.845 120.137 259.827 120.152C259.81 120.167 259.789 120.177 259.766 120.182C259.743 120.187 259.72 120.186 259.697 120.179C259.675 120.172 259.655 120.16 259.639 120.144C259.583 120.072 259.513 120.013 259.431 119.973C259.35 119.932 259.261 119.911 259.171 119.91C259.066 119.916 258.964 119.947 258.873 120.001C258.782 120.054 258.705 120.127 258.648 120.216C258.507 120.432 258.432 120.686 258.432 120.944C258.432 121.203 258.507 121.456 258.648 121.673C258.705 121.761 258.782 121.835 258.873 121.888C258.964 121.941 259.066 121.972 259.171 121.979C259.261 121.978 259.35 121.956 259.431 121.915C259.513 121.875 259.583 121.817 259.639 121.745C259.655 121.728 259.675 121.716 259.697 121.709C259.72 121.702 259.743 121.701 259.766 121.706C259.789 121.711 259.81 121.721 259.827 121.737C259.845 121.752 259.859 121.771 259.867 121.793C259.896 121.844 259.912 121.902 259.912 121.961C259.912 122.02 259.896 122.078 259.867 122.129C259.784 122.228 259.682 122.308 259.566 122.365C259.45 122.422 259.323 122.454 259.195 122.459C258.612 122.459 258.132 121.781 258.126 120.941Z" fill="#37474F"/>
<path d="M260.455 122.225V119.748C260.455 119.616 260.527 119.514 260.617 119.514C260.707 119.514 260.779 119.616 260.779 119.748V120.755H261.535V119.748C261.535 119.616 261.607 119.514 261.697 119.514C261.787 119.514 261.859 119.616 261.859 119.748V122.225C261.859 122.357 261.787 122.459 261.697 122.459C261.607 122.459 261.535 122.357 261.535 122.225V121.217H260.785V122.225C260.785 122.357 260.713 122.459 260.623 122.459C260.533 122.459 260.455 122.357 260.455 122.225Z" fill="#37474F"/>
<path d="M223.172 128.576V126.093C223.172 126.062 223.178 126.032 223.19 126.004C223.202 125.976 223.219 125.951 223.241 125.93C223.263 125.908 223.289 125.892 223.317 125.881C223.346 125.869 223.376 125.864 223.406 125.865H223.899C224.289 125.865 224.663 126.02 224.938 126.295C225.214 126.571 225.369 126.945 225.369 127.334C225.369 127.724 225.214 128.098 224.938 128.373C224.663 128.649 224.289 128.804 223.899 128.804H223.406C223.376 128.804 223.346 128.799 223.317 128.788C223.289 128.777 223.263 128.76 223.241 128.739C223.219 128.718 223.202 128.692 223.19 128.664C223.178 128.636 223.172 128.606 223.172 128.576ZM223.64 128.336H223.899C224.164 128.336 224.419 128.23 224.607 128.042C224.795 127.855 224.901 127.6 224.901 127.334C224.901 127.069 224.795 126.814 224.607 126.626C224.419 126.438 224.164 126.333 223.899 126.333H223.64V128.336Z" fill="#EBEBEB"/>
<path d="M226.011 126.093C226.011 126.062 226.017 126.032 226.029 126.004C226.041 125.976 226.058 125.951 226.08 125.93C226.102 125.908 226.127 125.892 226.156 125.881C226.184 125.869 226.214 125.864 226.245 125.865C226.306 125.865 226.364 125.889 226.408 125.931C226.452 125.974 226.477 126.032 226.479 126.093V128.576C226.477 128.637 226.452 128.695 226.408 128.737C226.364 128.78 226.306 128.804 226.245 128.804C226.214 128.804 226.184 128.799 226.156 128.788C226.127 128.777 226.102 128.76 226.08 128.739C226.058 128.718 226.041 128.692 226.029 128.664C226.017 128.636 226.011 128.606 226.011 128.576V126.093Z" fill="#EBEBEB"/>
<path d="M227.134 127.292C227.141 126.889 227.307 126.504 227.596 126.222C227.884 125.939 228.272 125.781 228.676 125.781C229.027 125.778 229.369 125.892 229.648 126.105C229.697 126.145 229.728 126.202 229.736 126.264C229.744 126.327 229.728 126.39 229.69 126.441C229.652 126.492 229.595 126.525 229.532 126.534C229.469 126.543 229.405 126.527 229.354 126.489C229.162 126.336 228.922 126.255 228.676 126.261C228.395 126.262 228.125 126.369 227.92 126.561C227.725 126.755 227.615 127.018 227.614 127.292C227.614 127.428 227.641 127.563 227.694 127.689C227.746 127.814 227.823 127.928 227.92 128.024C228.125 128.216 228.395 128.323 228.676 128.324C228.922 128.33 229.162 128.249 229.354 128.096C229.406 128.061 229.468 128.046 229.53 128.054C229.592 128.062 229.649 128.092 229.69 128.138C229.728 128.189 229.744 128.252 229.736 128.314C229.728 128.377 229.697 128.434 229.648 128.474C229.42 128.653 229.147 128.764 228.859 128.796C228.571 128.828 228.28 128.779 228.018 128.654C227.757 128.53 227.535 128.334 227.379 128.09C227.223 127.847 227.138 127.564 227.134 127.274V127.292Z" fill="#EBEBEB"/>
<path d="M232.301 126.333H231.635V128.576C231.635 128.636 231.611 128.694 231.568 128.737C231.525 128.78 231.467 128.804 231.407 128.804C231.346 128.804 231.287 128.78 231.243 128.737C231.199 128.695 231.174 128.637 231.173 128.576V126.333H230.506C230.445 126.33 230.387 126.303 230.344 126.258C230.302 126.214 230.278 126.154 230.278 126.093C230.278 126.032 230.302 125.974 230.345 125.932C230.388 125.889 230.446 125.865 230.506 125.865H232.307C232.368 125.865 232.427 125.889 232.47 125.931C232.514 125.974 232.539 126.032 232.541 126.093C232.539 126.156 232.514 126.216 232.469 126.261C232.424 126.305 232.364 126.331 232.301 126.333Z" fill="#EBEBEB"/>
<path d="M233.255 126.093C233.255 126.062 233.261 126.032 233.273 126.004C233.285 125.976 233.302 125.951 233.324 125.93C233.346 125.908 233.372 125.892 233.4 125.881C233.429 125.869 233.459 125.864 233.489 125.865C233.55 125.865 233.609 125.889 233.653 125.931C233.696 125.974 233.722 126.032 233.723 126.093V128.576C233.722 128.637 233.696 128.695 233.653 128.737C233.609 128.78 233.55 128.804 233.489 128.804C233.459 128.804 233.429 128.799 233.4 128.788C233.372 128.777 233.346 128.76 233.324 128.739C233.302 128.718 233.285 128.692 233.273 128.664C233.261 128.636 233.255 128.606 233.255 128.576V126.093Z" fill="#EBEBEB"/>
<path d="M236.826 126.231C237.1 126.517 237.253 126.897 237.253 127.292C237.253 127.688 237.1 128.068 236.826 128.354C236.7 128.494 236.545 128.607 236.373 128.684C236.2 128.762 236.013 128.802 235.824 128.804C235.63 128.803 235.439 128.763 235.261 128.686C235.084 128.608 234.924 128.495 234.792 128.354C234.526 128.064 234.379 127.685 234.379 127.292C234.379 126.899 234.526 126.521 234.792 126.231C234.924 126.089 235.084 125.976 235.261 125.899C235.439 125.822 235.63 125.781 235.824 125.781C236.013 125.782 236.2 125.823 236.373 125.9C236.545 125.978 236.7 126.09 236.826 126.231ZM236.772 127.292C236.772 127.02 236.672 126.758 236.49 126.555C236.405 126.463 236.302 126.39 236.187 126.339C236.073 126.289 235.949 126.262 235.824 126.261C235.696 126.26 235.569 126.286 235.451 126.337C235.334 126.387 235.228 126.462 235.14 126.555C234.956 126.756 234.855 127.02 234.858 127.292C234.854 127.563 234.955 127.825 235.14 128.024C235.225 128.118 235.33 128.193 235.446 128.245C235.562 128.296 235.688 128.323 235.815 128.323C235.942 128.323 236.068 128.296 236.184 128.245C236.3 128.193 236.405 128.118 236.49 128.024C236.672 127.824 236.773 127.563 236.772 127.292Z" fill="#EBEBEB"/>
<path d="M238.435 128.576C238.433 128.636 238.409 128.693 238.366 128.735C238.324 128.778 238.267 128.802 238.207 128.804C238.176 128.804 238.146 128.799 238.118 128.788C238.089 128.777 238.063 128.76 238.042 128.739C238.02 128.718 238.003 128.692 237.991 128.664C237.979 128.636 237.973 128.606 237.973 128.576V126.135C237.972 126.097 237.98 126.06 237.997 126.027C238.013 125.993 238.038 125.965 238.069 125.943C238.117 125.907 238.178 125.892 238.238 125.901C238.297 125.91 238.351 125.943 238.387 125.991L239.743 127.868V126.141C239.743 126.111 239.749 126.081 239.761 126.054C239.772 126.026 239.789 126.001 239.81 125.98C239.831 125.959 239.856 125.942 239.884 125.93C239.912 125.919 239.941 125.913 239.971 125.913C240.001 125.913 240.031 125.919 240.059 125.93C240.086 125.942 240.111 125.959 240.133 125.98C240.154 126.001 240.171 126.026 240.182 126.054C240.193 126.081 240.199 126.111 240.199 126.141V128.582C240.199 128.642 240.175 128.7 240.133 128.743C240.09 128.786 240.032 128.81 239.971 128.81C239.938 128.808 239.905 128.8 239.875 128.786C239.845 128.771 239.819 128.751 239.797 128.726L238.453 126.861L238.435 128.576Z" fill="#EBEBEB"/>
<path d="M242.708 128.096H241.688L241.484 128.648C241.465 128.691 241.434 128.727 241.394 128.753C241.355 128.779 241.309 128.792 241.261 128.792H241.183C241.125 128.769 241.078 128.724 241.052 128.667C241.026 128.61 241.024 128.545 241.045 128.486L241.976 126.015C241.994 125.971 242.025 125.933 242.064 125.907C242.104 125.88 242.15 125.866 242.198 125.866C242.245 125.866 242.292 125.88 242.331 125.907C242.371 125.933 242.402 125.971 242.42 126.015L243.35 128.486C243.372 128.545 243.369 128.61 243.343 128.667C243.318 128.724 243.27 128.769 243.212 128.792H243.128C243.082 128.792 243.038 128.779 243 128.753C242.963 128.727 242.934 128.69 242.918 128.648L242.708 128.096ZM242.54 127.634L242.198 126.735L241.856 127.634H242.54Z" fill="#EBEBEB"/>
<path d="M245.871 128.456C245.89 128.515 245.885 128.579 245.857 128.634C245.828 128.689 245.78 128.73 245.721 128.75H245.631C245.573 128.751 245.516 128.735 245.469 128.702C245.411 128.666 245.364 128.617 245.331 128.558C245.267 128.398 245.238 128.226 245.247 128.054C245.246 127.99 245.227 127.928 245.193 127.874C245.162 127.822 245.119 127.779 245.067 127.748C244.994 127.704 244.915 127.671 244.833 127.652H244.334V128.564C244.326 128.619 244.297 128.669 244.255 128.705C244.213 128.741 244.159 128.76 244.103 128.76C244.048 128.76 243.994 128.741 243.952 128.705C243.909 128.669 243.881 128.619 243.872 128.564V126.081C243.872 126.02 243.896 125.963 243.939 125.92C243.982 125.877 244.04 125.853 244.1 125.853H244.857C245.041 125.855 245.22 125.913 245.37 126.019C245.52 126.126 245.634 126.276 245.696 126.449C245.758 126.622 245.766 126.81 245.718 126.988C245.669 127.166 245.568 127.324 245.427 127.442C245.482 127.487 245.531 127.539 245.571 127.598C245.663 127.732 245.711 127.892 245.709 128.054C245.702 128.136 245.702 128.218 245.709 128.3C245.746 128.312 245.78 128.332 245.808 128.359C245.836 128.386 245.858 128.419 245.871 128.456ZM245.271 126.765C245.271 126.65 245.225 126.54 245.144 126.459C245.063 126.378 244.953 126.333 244.839 126.333H244.316V127.196H244.839C244.896 127.198 244.954 127.188 245.008 127.167C245.061 127.146 245.111 127.115 245.152 127.074C245.193 127.034 245.226 126.986 245.249 126.933C245.271 126.879 245.283 126.822 245.283 126.765H245.271Z" fill="#EBEBEB"/>
<path d="M248.493 126.261L247.629 127.46V128.6C247.629 128.63 247.623 128.66 247.611 128.688C247.599 128.716 247.582 128.742 247.56 128.763C247.539 128.784 247.513 128.801 247.484 128.812C247.456 128.823 247.426 128.828 247.395 128.828C247.335 128.826 247.278 128.802 247.236 128.759C247.193 128.717 247.169 128.66 247.167 128.6V127.46L246.315 126.261C246.295 126.237 246.28 126.21 246.272 126.18C246.263 126.151 246.261 126.12 246.265 126.09C246.269 126.059 246.279 126.03 246.295 126.004C246.311 125.977 246.332 125.955 246.357 125.937C246.381 125.919 246.41 125.906 246.439 125.898C246.469 125.891 246.5 125.89 246.53 125.895C246.561 125.9 246.59 125.911 246.615 125.928C246.641 125.944 246.664 125.966 246.681 125.991L247.395 126.974L248.115 125.991C248.151 125.941 248.206 125.908 248.266 125.898C248.327 125.887 248.389 125.902 248.439 125.937C248.487 125.975 248.519 126.029 248.528 126.089C248.538 126.148 248.526 126.21 248.493 126.261Z" fill="#EBEBEB"/>
</svg>
